<?xml version="1.0" encoding="UTF-8" standalone="no"?>
<!DOCTYPE svg PUBLIC "-//W3C//DTD SVG 1.1//EN"
 "http://www.w3.org/Graphics/SVG/1.1/DTD/svg11.dtd">
<!-- Generated by graphviz version 2.43.0 (0)
 -->
<!-- Title: tmc9660::TMC9660::bootloaderInit Pages: 1 -->
<svg width="370pt" height="122pt"
 viewBox="0.00 0.00 370.00 122.00" xmlns="http://www.w3.org/2000/svg" xmlns:xlink="http://www.w3.org/1999/xlink">
<g id="graph0" class="graph" transform="scale(1 1) rotate(0) translate(4 118)">
<title>tmc9660::TMC9660::bootloaderInit</title>
<!-- Node1 -->
<g id="Node000001" class="node">
<title>Node1</title>
<g id="a_Node000001"><a xlink:title="Complete bootloader initialization and transition to parameter mode.">
<polygon fill="#999999" stroke="#666666" points="185,-57.5 0,-57.5 0,-38.5 185,-38.5 185,-57.5"/>
<text text-anchor="middle" x="92.5" y="-45.5" font-family="Helvetica,sans-Serif" font-size="10.00">tmc9660::TMC9660::bootloaderInit</text>
</a>
</g>
</g>
<!-- Node2 -->
<g id="Node000002" class="node">
<title>Node2</title>
<g id="a_Node000002"><a xlink:href="classtmc9660_1_1CommInterface.html#aee31a2d12cd45cb76e99f19b301eef3e" target="_top" xlink:title="Get the underlying communication mode used by this interface.">
<polygon fill="white" stroke="#666666" points="362,-96 221,-96 221,-66 362,-66 362,-96"/>
<text text-anchor="start" x="229" y="-84" font-family="Helvetica,sans-Serif" font-size="10.00">tmc9660::CommInterface</text>
<text text-anchor="middle" x="291.5" y="-73" font-family="Helvetica,sans-Serif" font-size="10.00">::mode</text>
</a>
</g>
</g>
<!-- Node1&#45;&gt;Node2 -->
<g id="edge1_Node000001_Node000002" class="edge">
<title>Node1&#45;&gt;Node2</title>
<g id="a_edge1_Node000001_Node000002"><a xlink:title=" ">
<path fill="none" stroke="#63b8ff" d="M150.22,-57.5C169.17,-60.68 190.65,-64.27 211.01,-67.68"/>
<polygon fill="#63b8ff" stroke="#63b8ff" points="210.45,-71.14 220.89,-69.34 211.61,-64.24 210.45,-71.14"/>
</a>
</g>
</g>
<!-- Node3 -->
<g id="Node000003" class="node">
<title>Node3</title>
<g id="a_Node000003"><a xlink:href="classtmc9660_1_1CommInterface.html#a8a4f28c5ca1491ca429bf737b16f5053" target="_top" xlink:title="Perform a full duplex TMCL transfer for parameter mode communication.">
<polygon fill="white" stroke="#666666" points="362,-30 221,-30 221,0 362,0 362,-30"/>
<text text-anchor="start" x="229" y="-18" font-family="Helvetica,sans-Serif" font-size="10.00">tmc9660::CommInterface</text>
<text text-anchor="middle" x="291.5" y="-7" font-family="Helvetica,sans-Serif" font-size="10.00">::transferTMCL</text>
</a>
</g>
</g>
<!-- Node1&#45;&gt;Node3 -->
<g id="edge3_Node000001_Node000003" class="edge">
<title>Node1&#45;&gt;Node3</title>
<g id="a_edge3_Node000001_Node000003"><a xlink:title=" ">
<path fill="none" stroke="#63b8ff" d="M150.22,-38.5C169.17,-35.32 190.65,-31.73 211.01,-28.32"/>
<polygon fill="#63b8ff" stroke="#63b8ff" points="211.61,-31.76 220.89,-26.66 210.45,-24.86 211.61,-31.76"/>
</a>
</g>
</g>
<!-- Node2&#45;&gt;Node2 -->
<g id="edge2_Node000002_Node000002" class="edge">
<title>Node2&#45;&gt;Node2</title>
<g id="a_edge2_Node000002_Node000002"><a xlink:title=" ">
<path fill="none" stroke="#63b8ff" d="M256.7,-96.28C248.96,-105.41 260.56,-114 291.5,-114 309.87,-114 321.42,-110.97 326.16,-106.6"/>
<polygon fill="#63b8ff" stroke="#63b8ff" points="329.66,-106.32 326.3,-96.28 322.66,-106.22 329.66,-106.32"/>
</a>
</g>
</g>
<!-- Node3&#45;&gt;Node3 -->
<g id="edge4_Node000003_Node000003" class="edge">
<title>Node3&#45;&gt;Node3</title>
<g id="a_edge4_Node000003_Node000003"><a xlink:title=" ">
<path fill="none" stroke="#63b8ff" d="M256.7,-30.28C248.96,-39.41 260.56,-48 291.5,-48 309.87,-48 321.42,-44.97 326.16,-40.6"/>
<polygon fill="#63b8ff" stroke="#63b8ff" points="329.66,-40.32 326.3,-30.28 322.66,-40.22 329.66,-40.32"/>
</a>
</g>
</g>
</g>
</svg>
