<?xml version="1.0" encoding="UTF-8" standalone="no"?>
<!DOCTYPE svg PUBLIC "-//W3C//DTD SVG 1.1//EN"
 "http://www.w3.org/Graphics/SVG/1.1/DTD/svg11.dtd">
<!-- Generated by graphviz version 2.43.0 (0)
 -->
<!-- Title: stepper_comprehensive_test.cpp Pages: 1 -->
<svg width="2495pt" height="346pt"
 viewBox="0.00 0.00 2495.00 346.00" xmlns="http://www.w3.org/2000/svg" xmlns:xlink="http://www.w3.org/1999/xlink">
<g id="graph0" class="graph" transform="scale(1 1) rotate(0) translate(4 342)">
<title>stepper_comprehensive_test.cpp</title>
<!-- Node1 -->
<g id="Node000001" class="node">
<title>Node1</title>
<g id="a_Node000001"><a xlink:title="Comprehensive Stepper motor testing suite for ESP32&#45;C6 DevKit&#45;M&#45;1 (noexcept)">
<polygon fill="#999999" stroke="#666666" points="1688,-338 1554,-338 1554,-308 1688,-308 1688,-338"/>
<text text-anchor="start" x="1562" y="-326" font-family="Helvetica,sans-Serif" font-size="10.00">stepper_comprehensive</text>
<text text-anchor="middle" x="1621" y="-315" font-family="Helvetica,sans-Serif" font-size="10.00">_test.cpp</text>
</a>
</g>
</g>
<!-- Node2 -->
<g id="Node000002" class="node">
<title>Node2</title>
<g id="a_Node000002"><a xlink:href="tmc9660_8hpp.html" target="_top" xlink:title="Main TMC9660 motor driver interface and subsystem classes.">
<polygon fill="white" stroke="#666666" points="929.5,-272 804.5,-272 804.5,-253 929.5,-253 929.5,-272"/>
<text text-anchor="middle" x="867" y="-260" font-family="Helvetica,sans-Serif" font-size="10.00">../../../inc/tmc9660.hpp</text>
</a>
</g>
</g>
<!-- Node1&#45;&gt;Node2 -->
<g id="edge1_Node000001_Node000002" class="edge">
<title>Node1&#45;&gt;Node2</title>
<g id="a_edge1_Node000001_Node000002"><a xlink:title=" ">
<path fill="none" stroke="#63b8ff" d="M1553.76,-316.78C1412.5,-305.82 1085.94,-280.49 939.89,-269.16"/>
<polygon fill="#63b8ff" stroke="#63b8ff" points="939.93,-265.65 929.69,-268.36 939.39,-272.63 939.93,-265.65"/>
</a>
</g>
</g>
<!-- Node8 -->
<g id="Node000008" class="node">
<title>Node8</title>
<g id="a_Node000008"><a xlink:title=" ">
<polygon fill="#e0e0e0" stroke="#999999" points="1221,-211.5 1163,-211.5 1163,-192.5 1221,-192.5 1221,-211.5"/>
<text text-anchor="middle" x="1192" y="-199.5" font-family="Helvetica,sans-Serif" font-size="10.00">memory</text>
</a>
</g>
</g>
<!-- Node1&#45;&gt;Node8 -->
<g id="edge66_Node000001_Node000008" class="edge">
<title>Node1&#45;&gt;Node8</title>
<g id="a_edge66_Node000001_Node000008"><a xlink:title=" ">
<path fill="none" stroke="#63b8ff" d="M1566.11,-307.98C1491.04,-288.59 1352.29,-252.02 1235,-217 1232.56,-216.27 1230.06,-215.51 1227.54,-214.72"/>
<polygon fill="#63b8ff" stroke="#63b8ff" points="1228.45,-211.34 1217.86,-211.65 1226.33,-218.01 1228.45,-211.34"/>
</a>
</g>
</g>
<!-- Node11 -->
<g id="Node000011" class="node">
<title>Node11</title>
<g id="a_Node000011"><a xlink:title=" ">
<polygon fill="#e0e0e0" stroke="#999999" points="1079.5,-211.5 1028.5,-211.5 1028.5,-192.5 1079.5,-192.5 1079.5,-211.5"/>
<text text-anchor="middle" x="1054" y="-199.5" font-family="Helvetica,sans-Serif" font-size="10.00">variant</text>
</a>
</g>
</g>
<!-- Node1&#45;&gt;Node11 -->
<g id="edge69_Node000001_Node000011" class="edge">
<title>Node1&#45;&gt;Node11</title>
<g id="a_edge69_Node000001_Node000011"><a xlink:title=" ">
<path fill="none" stroke="#63b8ff" d="M1553.83,-315.2C1483.74,-307.42 1370.9,-292.99 1275,-272 1190.79,-253.57 1170.44,-245.26 1089,-217 1087.38,-216.44 1085.73,-215.85 1084.07,-215.24"/>
<polygon fill="#63b8ff" stroke="#63b8ff" points="1085.2,-211.92 1074.61,-211.61 1082.7,-218.46 1085.2,-211.92"/>
</a>
</g>
</g>
<!-- Node12 -->
<g id="Node000012" class="node">
<title>Node12</title>
<g id="a_Node000012"><a xlink:title=" ">
<polygon fill="#e0e0e0" stroke="#999999" points="1144.5,-211.5 1097.5,-211.5 1097.5,-192.5 1144.5,-192.5 1144.5,-211.5"/>
<text text-anchor="middle" x="1121" y="-199.5" font-family="Helvetica,sans-Serif" font-size="10.00">vector</text>
</a>
</g>
</g>
<!-- Node1&#45;&gt;Node12 -->
<g id="edge67_Node000001_Node000012" class="edge">
<title>Node1&#45;&gt;Node12</title>
<g id="a_edge67_Node000001_Node000012"><a xlink:title=" ">
<path fill="none" stroke="#63b8ff" d="M1553.97,-311.78C1462.08,-296.68 1292.62,-264.93 1154,-217 1152.57,-216.5 1151.11,-215.98 1149.64,-215.43"/>
<polygon fill="#63b8ff" stroke="#63b8ff" points="1150.61,-212.04 1140.02,-211.59 1148.02,-218.55 1150.61,-212.04"/>
</a>
</g>
</g>
<!-- Node27 -->
<g id="Node000027" class="node">
<title>Node27</title>
<g id="a_Node000027"><a xlink:href="esp32__tmc9660__bus_8hpp.html" target="_top" xlink:title="ESP32&#45;specific communication interfaces for TMC9660 using SPI and UART.">
<polygon fill="white" stroke="#666666" points="1689.5,-272 1552.5,-272 1552.5,-253 1689.5,-253 1689.5,-272"/>
<text text-anchor="middle" x="1621" y="-260" font-family="Helvetica,sans-Serif" font-size="10.00">esp32_tmc9660_bus.hpp</text>
</a>
</g>
</g>
<!-- Node1&#45;&gt;Node27 -->
<g id="edge44_Node000001_Node000027" class="edge">
<title>Node1&#45;&gt;Node27</title>
<g id="a_edge44_Node000001_Node000027"><a xlink:title=" ">
<path fill="none" stroke="#63b8ff" d="M1621,-307.84C1621,-300.21 1621,-290.7 1621,-282.45"/>
<polygon fill="#63b8ff" stroke="#63b8ff" points="1624.5,-282.27 1621,-272.27 1617.5,-282.27 1624.5,-282.27"/>
</a>
</g>
</g>
<!-- Node32 -->
<g id="Node000032" class="node">
<title>Node32</title>
<g id="a_Node000032"><a xlink:title=" ">
<polygon fill="#e0e0e0" stroke="#999999" points="2051.5,-211.5 1938.5,-211.5 1938.5,-192.5 2051.5,-192.5 2051.5,-211.5"/>
<text text-anchor="middle" x="1995" y="-199.5" font-family="Helvetica,sans-Serif" font-size="10.00">freertos/FreeRTOS.h</text>
</a>
</g>
</g>
<!-- Node1&#45;&gt;Node32 -->
<g id="edge70_Node000001_Node000032" class="edge">
<title>Node1&#45;&gt;Node32</title>
<g id="a_edge70_Node000001_Node000032"><a xlink:title=" ">
<path fill="none" stroke="#63b8ff" d="M1665,-308C1739.54,-284.28 1889.26,-236.64 1958.43,-214.64"/>
<polygon fill="#63b8ff" stroke="#63b8ff" points="1959.56,-217.95 1968.03,-211.58 1957.44,-211.28 1959.56,-217.95"/>
</a>
</g>
</g>
<!-- Node33 -->
<g id="Node000033" class="node">
<title>Node33</title>
<g id="a_Node000033"><a xlink:title=" ">
<polygon fill="#e0e0e0" stroke="#999999" points="2487,-211.5 2399,-211.5 2399,-192.5 2487,-192.5 2487,-211.5"/>
<text text-anchor="middle" x="2443" y="-199.5" font-family="Helvetica,sans-Serif" font-size="10.00">freertos/task.h</text>
</a>
</g>
</g>
<!-- Node1&#45;&gt;Node33 -->
<g id="edge71_Node000001_Node000033" class="edge">
<title>Node1&#45;&gt;Node33</title>
<g id="a_edge71_Node000001_Node000033"><a xlink:title=" ">
<path fill="none" stroke="#63b8ff" d="M1688.09,-321.43C1774.45,-319.08 1928.34,-309.4 2054,-272 2072.1,-266.61 2073.92,-258.43 2092,-253 2219.76,-214.6 2258.97,-242.1 2390,-217 2394.49,-216.14 2399.15,-215.11 2403.77,-214.01"/>
<polygon fill="#63b8ff" stroke="#63b8ff" points="2404.89,-217.34 2413.73,-211.5 2403.18,-210.55 2404.89,-217.34"/>
</a>
</g>
</g>
<!-- Node35 -->
<g id="Node000035" class="node">
<title>Node35</title>
<g id="a_Node000035"><a xlink:href="TestFramework_8h.html" target="_top" xlink:title="Shared testing framework for ESP32&#45;C6 comprehensive test suites.">
<polygon fill="white" stroke="#666666" points="2045,-272 1945,-272 1945,-253 2045,-253 2045,-272"/>
<text text-anchor="middle" x="1995" y="-260" font-family="Helvetica,sans-Serif" font-size="10.00">TestFramework.h</text>
</a>
</g>
</g>
<!-- Node1&#45;&gt;Node35 -->
<g id="edge58_Node000001_Node000035" class="edge">
<title>Node1&#45;&gt;Node35</title>
<g id="a_edge58_Node000001_Node000035"><a xlink:title=" ">
<path fill="none" stroke="#63b8ff" d="M1688.3,-311.47C1758.51,-300.49 1867.56,-283.43 1934.95,-272.89"/>
<polygon fill="#63b8ff" stroke="#63b8ff" points="1935.65,-276.33 1944.99,-271.32 1934.57,-269.41 1935.65,-276.33"/>
</a>
</g>
</g>
<!-- Node39 -->
<g id="Node000039" class="node">
<title>Node39</title>
<g id="a_Node000039"><a xlink:title=" ">
<polygon fill="#e0e0e0" stroke="#999999" points="2165,-272 2101,-272 2101,-253 2165,-253 2165,-272"/>
<text text-anchor="middle" x="2133" y="-260" font-family="Helvetica,sans-Serif" font-size="10.00">algorithm</text>
</a>
</g>
</g>
<!-- Node1&#45;&gt;Node39 -->
<g id="edge68_Node000001_Node000039" class="edge">
<title>Node1&#45;&gt;Node39</title>
<g id="a_edge68_Node000001_Node000039"><a xlink:title=" ">
<path fill="none" stroke="#63b8ff" d="M1688.34,-316.39C1779.12,-308.46 1945.7,-292.61 2087,-272 2088.27,-271.82 2089.55,-271.62 2090.85,-271.42"/>
<polygon fill="#63b8ff" stroke="#63b8ff" points="2091.59,-274.84 2100.88,-269.76 2090.44,-267.94 2091.59,-274.84"/>
</a>
</g>
</g>
<!-- Node3 -->
<g id="Node000003" class="node">
<title>Node3</title>
<g id="a_Node000003"><a xlink:title=" ">
<polygon fill="#e0e0e0" stroke="#999999" points="907,-19 865,-19 865,0 907,0 907,-19"/>
<text text-anchor="middle" x="886" y="-7" font-family="Helvetica,sans-Serif" font-size="10.00">array</text>
</a>
</g>
</g>
<!-- Node2&#45;&gt;Node3 -->
<g id="edge2_Node000002_Node000003" class="edge">
<title>Node2&#45;&gt;Node3</title>
<g id="a_edge2_Node000002_Node000003"><a xlink:title=" ">
<path fill="none" stroke="#63b8ff" d="M867.65,-252.86C870.37,-217.03 880.76,-79.66 884.58,-29.22"/>
<polygon fill="#63b8ff" stroke="#63b8ff" points="888.08,-29.34 885.35,-19.1 881.1,-28.81 888.08,-29.34"/>
</a>
</g>
</g>
<!-- Node4 -->
<g id="Node000004" class="node">
<title>Node4</title>
<g id="a_Node000004"><a xlink:title=" ">
<polygon fill="#e0e0e0" stroke="#999999" points="819.5,-145.5 772.5,-145.5 772.5,-126.5 819.5,-126.5 819.5,-145.5"/>
<text text-anchor="middle" x="796" y="-133.5" font-family="Helvetica,sans-Serif" font-size="10.00">cmath</text>
</a>
</g>
</g>
<!-- Node2&#45;&gt;Node4 -->
<g id="edge3_Node000002_Node000004" class="edge">
<title>Node2&#45;&gt;Node4</title>
<g id="a_edge3_Node000002_Node000004"><a xlink:title=" ">
<path fill="none" stroke="#63b8ff" d="M862.86,-252.61C856.2,-238.47 842.45,-210.08 829,-187 822.48,-175.81 814.5,-163.68 808.02,-154.17"/>
<polygon fill="#63b8ff" stroke="#63b8ff" points="810.71,-151.9 802.15,-145.66 804.95,-155.88 810.71,-151.9"/>
</a>
</g>
</g>
<!-- Node5 -->
<g id="Node000005" class="node">
<title>Node5</title>
<g id="a_Node000005"><a xlink:title=" ">
<polygon fill="#e0e0e0" stroke="#999999" points="409,-19 359,-19 359,0 409,0 409,-19"/>
<text text-anchor="middle" x="384" y="-7" font-family="Helvetica,sans-Serif" font-size="10.00">cstdint</text>
</a>
</g>
</g>
<!-- Node2&#45;&gt;Node5 -->
<g id="edge4_Node000002_Node000005" class="edge">
<title>Node2&#45;&gt;Node5</title>
<g id="a_edge4_Node000002_Node000005"><a xlink:title=" ">
<path fill="none" stroke="#63b8ff" d="M804.41,-261.1C700.25,-259.44 496.68,-251.71 435,-217 402.93,-198.95 396.72,-185.88 385,-151 380.75,-138.36 381.94,-133.98 385,-121 389.11,-103.59 398.89,-102.41 403,-85 406.06,-72.02 405.67,-68.06 403,-55 401.11,-45.74 397.21,-36.03 393.43,-28.04"/>
<polygon fill="#63b8ff" stroke="#63b8ff" points="396.51,-26.37 388.88,-19.02 390.26,-29.53 396.51,-26.37"/>
</a>
</g>
</g>
<!-- Node6 -->
<g id="Node000006" class="node">
<title>Node6</title>
<g id="a_Node000006"><a xlink:title=" ">
<polygon fill="#e0e0e0" stroke="#999999" points="1137.5,-19 1088.5,-19 1088.5,0 1137.5,0 1137.5,-19"/>
<text text-anchor="middle" x="1113" y="-7" font-family="Helvetica,sans-Serif" font-size="10.00">cstdlib</text>
</a>
</g>
</g>
<!-- Node2&#45;&gt;Node6 -->
<g id="edge5_Node000002_Node000006" class="edge">
<title>Node2&#45;&gt;Node6</title>
<g id="a_edge5_Node000002_Node000006"><a xlink:title=" ">
<path fill="none" stroke="#63b8ff" d="M880.56,-252.8C933.01,-219.08 1119.98,-98.26 1127,-85 1136.4,-67.26 1129.62,-44.2 1122.61,-28.47"/>
<polygon fill="#63b8ff" stroke="#63b8ff" points="1125.67,-26.76 1118.14,-19.31 1119.38,-29.83 1125.67,-26.76"/>
</a>
</g>
</g>
<!-- Node7 -->
<g id="Node000007" class="node">
<title>Node7</title>
<g id="a_Node000007"><a xlink:title=" ">
<polygon fill="#e0e0e0" stroke="#999999" points="622,-211.5 578,-211.5 578,-192.5 622,-192.5 622,-211.5"/>
<text text-anchor="middle" x="600" y="-199.5" font-family="Helvetica,sans-Serif" font-size="10.00">limits</text>
</a>
</g>
</g>
<!-- Node2&#45;&gt;Node7 -->
<g id="edge6_Node000002_Node000007" class="edge">
<title>Node2&#45;&gt;Node7</title>
<g id="a_edge6_Node000002_Node000007"><a xlink:title=" ">
<path fill="none" stroke="#63b8ff" d="M804.39,-253.83C756.25,-246.95 688.46,-235.11 631,-217 629.56,-216.55 628.09,-216.04 626.62,-215.5"/>
<polygon fill="#63b8ff" stroke="#63b8ff" points="627.68,-212.15 617.09,-211.59 625.02,-218.63 627.68,-212.15"/>
</a>
</g>
</g>
<!-- Node2&#45;&gt;Node8 -->
<g id="edge7_Node000002_Node000008" class="edge">
<title>Node2&#45;&gt;Node8</title>
<g id="a_edge7_Node000002_Node000008"><a xlink:title=" ">
<path fill="none" stroke="#63b8ff" d="M929.59,-255.43C988.23,-248.89 1077.98,-236.69 1154,-217 1156.44,-216.37 1158.95,-215.64 1161.45,-214.85"/>
<polygon fill="#63b8ff" stroke="#63b8ff" points="1162.6,-218.15 1170.93,-211.61 1160.34,-211.53 1162.6,-218.15"/>
</a>
</g>
</g>
<!-- Node9 -->
<g id="Node000009" class="node">
<title>Node9</title>
<g id="a_Node000009"><a xlink:title=" ">
<polygon fill="#e0e0e0" stroke="#999999" points="820,-211.5 764,-211.5 764,-192.5 820,-192.5 820,-211.5"/>
<text text-anchor="middle" x="792" y="-199.5" font-family="Helvetica,sans-Serif" font-size="10.00">optional</text>
</a>
</g>
</g>
<!-- Node2&#45;&gt;Node9 -->
<g id="edge8_Node000002_Node000009" class="edge">
<title>Node2&#45;&gt;Node9</title>
<g id="a_edge8_Node000002_Node000009"><a xlink:title=" ">
<path fill="none" stroke="#63b8ff" d="M855.93,-252.87C844.19,-243.71 825.41,-229.06 811.24,-218.01"/>
<polygon fill="#63b8ff" stroke="#63b8ff" points="813.15,-215.06 803.11,-211.67 808.84,-220.58 813.15,-215.06"/>
</a>
</g>
</g>
<!-- Node10 -->
<g id="Node000010" class="node">
<title>Node10</title>
<g id="a_Node000010"><a xlink:title=" ">
<polygon fill="#e0e0e0" stroke="#999999" points="1201,-19 1161,-19 1161,0 1201,0 1201,-19"/>
<text text-anchor="middle" x="1181" y="-7" font-family="Helvetica,sans-Serif" font-size="10.00">span</text>
</a>
</g>
</g>
<!-- Node2&#45;&gt;Node10 -->
<g id="edge9_Node000002_Node000010" class="edge">
<title>Node2&#45;&gt;Node10</title>
<g id="a_edge9_Node000002_Node000010"><a xlink:title=" ">
<path fill="none" stroke="#63b8ff" d="M890.72,-252.96C912.58,-244.76 945.68,-231.51 973,-217 973.74,-216.61 1073.34,-151.52 1074,-151 1107.24,-124.61 1117.67,-119.05 1143,-85 1156.1,-67.4 1166.97,-44.61 1173.69,-28.9"/>
<polygon fill="#63b8ff" stroke="#63b8ff" points="1177.07,-29.88 1177.65,-19.3 1170.6,-27.21 1177.07,-29.88"/>
</a>
</g>
</g>
<!-- Node2&#45;&gt;Node11 -->
<g id="edge10_Node000002_Node000011" class="edge">
<title>Node2&#45;&gt;Node11</title>
<g id="a_edge10_Node000002_Node000011"><a xlink:title=" ">
<path fill="none" stroke="#63b8ff" d="M896.68,-252.92C926.45,-244.22 973.57,-230.19 1014,-217 1016.1,-216.31 1018.26,-215.6 1020.44,-214.86"/>
<polygon fill="#63b8ff" stroke="#63b8ff" points="1021.62,-218.16 1029.94,-211.61 1019.35,-211.54 1021.62,-218.16"/>
</a>
</g>
</g>
<!-- Node2&#45;&gt;Node12 -->
<g id="edge11_Node000002_Node000012" class="edge">
<title>Node2&#45;&gt;Node12</title>
<g id="a_edge11_Node000002_Node000012"><a xlink:title=" ">
<path fill="none" stroke="#63b8ff" d="M925.97,-252.96C970.96,-245.65 1034.16,-233.65 1088,-217 1089.68,-216.48 1091.38,-215.91 1093.09,-215.3"/>
<polygon fill="#63b8ff" stroke="#63b8ff" points="1094.71,-218.42 1102.75,-211.52 1092.16,-211.9 1094.71,-218.42"/>
</a>
</g>
</g>
<!-- Node13 -->
<g id="Node000013" class="node">
<title>Node13</title>
<g id="a_Node000013"><a xlink:href="tmc9660__comm__interface_8hpp.html" target="_top" xlink:title="Communication interfaces for TMC9660 Parameter Mode devices using TMCL protocol over SPI and UART.">
<polygon fill="white" stroke="#666666" points="1117.5,-79.5 952.5,-79.5 952.5,-60.5 1117.5,-60.5 1117.5,-79.5"/>
<text text-anchor="middle" x="1035" y="-67.5" font-family="Helvetica,sans-Serif" font-size="10.00">tmc9660_comm_interface.hpp</text>
</a>
</g>
</g>
<!-- Node2&#45;&gt;Node13 -->
<g id="edge12_Node000002_Node000013" class="edge">
<title>Node2&#45;&gt;Node13</title>
<g id="a_edge12_Node000002_Node000013"><a xlink:title=" ">
<path fill="none" stroke="#63b8ff" d="M874.66,-252.82C900.67,-223.32 985.99,-126.57 1020.41,-87.54"/>
<polygon fill="#63b8ff" stroke="#63b8ff" points="1023.31,-89.55 1027.3,-79.73 1018.06,-84.92 1023.31,-89.55"/>
</a>
</g>
</g>
<!-- Node18 -->
<g id="Node000018" class="node">
<title>Node18</title>
<g id="a_Node000018"><a xlink:href="tmc9660__bootloader_8hpp.html" target="_top" xlink:title="Main TMC9660 bootloader interface class.">
<polygon fill="white" stroke="#666666" points="559.5,-217 444.5,-217 444.5,-187 559.5,-187 559.5,-217"/>
<text text-anchor="start" x="452.5" y="-205" font-family="Helvetica,sans-Serif" font-size="10.00">bootloader/tmc9660</text>
<text text-anchor="middle" x="502" y="-194" font-family="Helvetica,sans-Serif" font-size="10.00">_bootloader.hpp</text>
</a>
</g>
</g>
<!-- Node2&#45;&gt;Node18 -->
<g id="edge21_Node000002_Node000018" class="edge">
<title>Node2&#45;&gt;Node18</title>
<g id="a_edge21_Node000002_Node000018"><a xlink:title=" ">
<path fill="none" stroke="#63b8ff" d="M804.33,-253.21C746.15,-245.28 656.9,-232.49 569.76,-217.07"/>
<polygon fill="#63b8ff" stroke="#63b8ff" points="570.16,-213.59 559.7,-215.28 568.93,-220.48 570.16,-213.59"/>
</a>
</g>
</g>
<!-- Node25 -->
<g id="Node000025" class="node">
<title>Node25</title>
<g id="a_Node000025"><a xlink:href="tmc9660__param__mode__tmcl_8hpp.html" target="_top" xlink:title=" ">
<polygon fill="white" stroke="#666666" points="146,-85 0,-85 0,-55 146,-55 146,-85"/>
<text text-anchor="start" x="8" y="-73" font-family="Helvetica,sans-Serif" font-size="10.00">parameter_mode/tmc9660</text>
<text text-anchor="middle" x="73" y="-62" font-family="Helvetica,sans-Serif" font-size="10.00">_param_mode_tmcl.hpp</text>
</a>
</g>
</g>
<!-- Node2&#45;&gt;Node25 -->
<g id="edge39_Node000002_Node000025" class="edge">
<title>Node2&#45;&gt;Node25</title>
<g id="a_edge39_Node000002_Node000025"><a xlink:title=" ">
<path fill="none" stroke="#63b8ff" d="M804.31,-261.62C706.48,-260.58 512.11,-253.54 352,-217 271.36,-198.6 250.31,-191.15 178,-151 147.71,-134.18 116.58,-109.33 96.16,-91.8"/>
<polygon fill="#63b8ff" stroke="#63b8ff" points="98.2,-88.93 88.36,-85.01 93.61,-94.21 98.2,-88.93"/>
</a>
</g>
</g>
<!-- Node26 -->
<g id="Node000026" class="node">
<title>Node26</title>
<g id="a_Node000026"><a xlink:href="tmc9660_8cpp.html" target="_top" xlink:title=" ">
<polygon fill="white" stroke="#666666" points="746,-211.5 640,-211.5 640,-192.5 746,-192.5 746,-211.5"/>
<text text-anchor="middle" x="693" y="-199.5" font-family="Helvetica,sans-Serif" font-size="10.00">../src/tmc9660.cpp</text>
</a>
</g>
</g>
<!-- Node2&#45;&gt;Node26 -->
<g id="edge41_Node000002_Node000026" class="edge">
<title>Node2&#45;&gt;Node26</title>
<g id="a_edge41_Node000002_Node000026"><a xlink:title=" ">
<path fill="none" stroke="#63b8ff" d="M836.77,-252.99C804.81,-242.99 754.98,-226.3 723.08,-214.99"/>
<polygon fill="#63b8ff" stroke="#63b8ff" points="724,-211.6 713.4,-211.52 721.63,-218.19 724,-211.6"/>
</a>
</g>
</g>
<!-- Node13&#45;&gt;Node3 -->
<g id="edge13_Node000013_Node000003" class="edge">
<title>Node13&#45;&gt;Node3</title>
<g id="a_edge13_Node000013_Node000003"><a xlink:title=" ">
<path fill="none" stroke="#63b8ff" d="M1013.33,-60.49C987.92,-50.52 945.61,-33.9 916.79,-22.59"/>
<polygon fill="#63b8ff" stroke="#63b8ff" points="917.8,-19.22 907.21,-18.83 915.24,-25.74 917.8,-19.22"/>
</a>
</g>
</g>
<!-- Node13&#45;&gt;Node5 -->
<g id="edge15_Node000013_Node000005" class="edge">
<title>Node13&#45;&gt;Node5</title>
<g id="a_edge15_Node000013_Node000005"><a xlink:title=" ">
<path fill="none" stroke="#63b8ff" d="M952.22,-61.56C808.82,-48.67 519.9,-22.71 419.41,-13.68"/>
<polygon fill="#63b8ff" stroke="#63b8ff" points="419.47,-10.17 409.2,-12.76 418.84,-17.15 419.47,-10.17"/>
</a>
</g>
</g>
<!-- Node13&#45;&gt;Node6 -->
<g id="edge17_Node000013_Node000006" class="edge">
<title>Node13&#45;&gt;Node6</title>
<g id="a_edge17_Node000013_Node000006"><a xlink:title=" ">
<path fill="none" stroke="#63b8ff" d="M1046.51,-60.37C1058.84,-51.12 1078.62,-36.28 1093.41,-25.19"/>
<polygon fill="#63b8ff" stroke="#63b8ff" points="1095.54,-27.97 1101.44,-19.17 1091.34,-22.37 1095.54,-27.97"/>
</a>
</g>
</g>
<!-- Node13&#45;&gt;Node10 -->
<g id="edge19_Node000013_Node000010" class="edge">
<title>Node13&#45;&gt;Node10</title>
<g id="a_edge19_Node000013_Node000010"><a xlink:title=" ">
<path fill="none" stroke="#63b8ff" d="M1056.23,-60.49C1081.27,-50.46 1123.07,-33.71 1151.31,-22.4"/>
<polygon fill="#63b8ff" stroke="#63b8ff" points="1152.71,-25.61 1160.69,-18.64 1150.1,-19.11 1152.71,-25.61"/>
</a>
</g>
</g>
<!-- Node14 -->
<g id="Node000014" class="node">
<title>Node14</title>
<g id="a_Node000014"><a xlink:title=" ">
<polygon fill="#e0e0e0" stroke="#999999" points="1481.5,-19 1428.5,-19 1428.5,0 1481.5,0 1481.5,-19"/>
<text text-anchor="middle" x="1455" y="-7" font-family="Helvetica,sans-Serif" font-size="10.00">cstdarg</text>
</a>
</g>
</g>
<!-- Node13&#45;&gt;Node14 -->
<g id="edge14_Node000013_Node000014" class="edge">
<title>Node13&#45;&gt;Node14</title>
<g id="a_edge14_Node000013_Node000014"><a xlink:title=" ">
<path fill="none" stroke="#63b8ff" d="M1096.07,-60.49C1184.55,-48.17 1345.68,-25.73 1418.06,-15.64"/>
<polygon fill="#63b8ff" stroke="#63b8ff" points="1418.66,-19.1 1428.08,-14.25 1417.69,-12.16 1418.66,-19.1"/>
</a>
</g>
</g>
<!-- Node15 -->
<g id="Node000015" class="node">
<title>Node15</title>
<g id="a_Node000015"><a xlink:title=" ">
<polygon fill="#e0e0e0" stroke="#999999" points="998,-19 952,-19 952,0 998,0 998,-19"/>
<text text-anchor="middle" x="975" y="-7" font-family="Helvetica,sans-Serif" font-size="10.00">cstdio</text>
</a>
</g>
</g>
<!-- Node13&#45;&gt;Node15 -->
<g id="edge16_Node000013_Node000015" class="edge">
<title>Node13&#45;&gt;Node15</title>
<g id="a_edge16_Node000013_Node000015"><a xlink:title=" ">
<path fill="none" stroke="#63b8ff" d="M1026.15,-60.37C1017.02,-51.47 1002.58,-37.39 991.36,-26.45"/>
<polygon fill="#63b8ff" stroke="#63b8ff" points="993.49,-23.64 983.89,-19.17 988.61,-28.65 993.49,-23.64"/>
</a>
</g>
</g>
<!-- Node16 -->
<g id="Node000016" class="node">
<title>Node16</title>
<g id="a_Node000016"><a xlink:title=" ">
<polygon fill="#e0e0e0" stroke="#999999" points="1655,-19 1605,-19 1605,0 1655,0 1655,-19"/>
<text text-anchor="middle" x="1630" y="-7" font-family="Helvetica,sans-Serif" font-size="10.00">cstring</text>
</a>
</g>
</g>
<!-- Node13&#45;&gt;Node16 -->
<g id="edge18_Node000013_Node000016" class="edge">
<title>Node13&#45;&gt;Node16</title>
<g id="a_edge18_Node000013_Node000016"><a xlink:title=" ">
<path fill="none" stroke="#63b8ff" d="M1117.73,-60.87C1249.64,-47.9 1502.15,-23.07 1594.79,-13.96"/>
<polygon fill="#63b8ff" stroke="#63b8ff" points="1595.17,-17.44 1604.78,-12.98 1594.48,-10.48 1595.17,-17.44"/>
</a>
</g>
</g>
<!-- Node17 -->
<g id="Node000017" class="node">
<title>Node17</title>
<g id="a_Node000017"><a xlink:title=" ">
<polygon fill="#e0e0e0" stroke="#999999" points="1060,-19 1016,-19 1016,0 1060,0 1060,-19"/>
<text text-anchor="middle" x="1038" y="-7" font-family="Helvetica,sans-Serif" font-size="10.00">string</text>
</a>
</g>
</g>
<!-- Node13&#45;&gt;Node17 -->
<g id="edge20_Node000013_Node000017" class="edge">
<title>Node13&#45;&gt;Node17</title>
<g id="a_edge20_Node000013_Node000017"><a xlink:title=" ">
<path fill="none" stroke="#63b8ff" d="M1035.44,-60.37C1035.86,-52.25 1036.5,-39.81 1037.03,-29.39"/>
<polygon fill="#63b8ff" stroke="#63b8ff" points="1040.54,-29.33 1037.56,-19.17 1033.55,-28.97 1040.54,-29.33"/>
</a>
</g>
</g>
<!-- Node18&#45;&gt;Node5 -->
<g id="edge33_Node000018_Node000005" class="edge">
<title>Node18&#45;&gt;Node5</title>
<g id="a_edge33_Node000018_Node000005"><a xlink:title=" ">
<path fill="none" stroke="#63b8ff" d="M444.18,-200.22C363.81,-197.78 224.61,-188.14 193,-151 140.72,-89.58 280.36,-39.87 348.76,-19.93"/>
<polygon fill="#63b8ff" stroke="#63b8ff" points="350.04,-23.2 358.7,-17.1 348.12,-16.47 350.04,-23.2"/>
</a>
</g>
</g>
<!-- Node18&#45;&gt;Node13 -->
<g id="edge32_Node000018_Node000013" class="edge">
<title>Node18&#45;&gt;Node13</title>
<g id="a_edge32_Node000018_Node000013"><a xlink:title=" ">
<path fill="none" stroke="#63b8ff" d="M559.7,-188.73C623.23,-175.12 717.45,-154.59 725,-151 744.43,-141.75 743.4,-129.87 763,-121 819.52,-95.42 888.27,-82.92 942.52,-76.82"/>
<polygon fill="#63b8ff" stroke="#63b8ff" points="942.9,-80.3 952.47,-75.75 942.15,-73.34 942.9,-80.3"/>
</a>
</g>
</g>
<!-- Node19 -->
<g id="Node000019" class="node">
<title>Node19</title>
<g id="a_Node000019"><a xlink:href="bootloader__config_8hpp.html" target="_top" xlink:title="TMC9660 bootloader configuration structures and enumerations.">
<polygon fill="white" stroke="#666666" points="519.5,-145.5 394.5,-145.5 394.5,-126.5 519.5,-126.5 519.5,-145.5"/>
<text text-anchor="middle" x="457" y="-133.5" font-family="Helvetica,sans-Serif" font-size="10.00">bootloader_config.hpp</text>
</a>
</g>
</g>
<!-- Node18&#45;&gt;Node19 -->
<g id="edge22_Node000018_Node000019" class="edge">
<title>Node18&#45;&gt;Node19</title>
<g id="a_edge22_Node000018_Node000019"><a xlink:title=" ">
<path fill="none" stroke="#63b8ff" d="M492.01,-186.8C485.27,-177.21 476.34,-164.5 469.18,-154.32"/>
<polygon fill="#63b8ff" stroke="#63b8ff" points="471.83,-152.01 463.22,-145.84 466.11,-156.04 471.83,-152.01"/>
</a>
</g>
</g>
<!-- Node20 -->
<g id="Node000020" class="node">
<title>Node20</title>
<g id="a_Node000020"><a xlink:href="bootloader__protocol_8hpp.html" target="_top" xlink:title="TMC9660 bootloader communication protocol structures and enumerations.">
<polygon fill="white" stroke="#666666" points="337.5,-145.5 202.5,-145.5 202.5,-126.5 337.5,-126.5 337.5,-145.5"/>
<text text-anchor="middle" x="270" y="-133.5" font-family="Helvetica,sans-Serif" font-size="10.00">bootloader_protocol.hpp</text>
</a>
</g>
</g>
<!-- Node18&#45;&gt;Node20 -->
<g id="edge24_Node000018_Node000020" class="edge">
<title>Node18&#45;&gt;Node20</title>
<g id="a_edge24_Node000018_Node000020"><a xlink:title=" ">
<path fill="none" stroke="#63b8ff" d="M451.09,-186.95C408.97,-175.34 349.92,-159.05 310.85,-148.27"/>
<polygon fill="#63b8ff" stroke="#63b8ff" points="311.45,-144.8 300.88,-145.52 309.58,-151.55 311.45,-144.8"/>
</a>
</g>
</g>
<!-- Node23 -->
<g id="Node000023" class="node">
<title>Node23</title>
<g id="a_Node000023"><a xlink:title=" ">
<polygon fill="#e0e0e0" stroke="#999999" points="638.5,-79.5 569.5,-79.5 569.5,-60.5 638.5,-60.5 638.5,-79.5"/>
<text text-anchor="middle" x="604" y="-67.5" font-family="Helvetica,sans-Serif" font-size="10.00">type_traits</text>
</a>
</g>
</g>
<!-- Node18&#45;&gt;Node23 -->
<g id="edge34_Node000018_Node000023" class="edge">
<title>Node18&#45;&gt;Node23</title>
<g id="a_edge34_Node000018_Node000023"><a xlink:title=" ">
<path fill="none" stroke="#63b8ff" d="M513.11,-186.84C532.05,-162.71 570.49,-113.71 590.78,-87.85"/>
<polygon fill="#63b8ff" stroke="#63b8ff" points="593.72,-89.78 597.14,-79.75 588.21,-85.46 593.72,-89.78"/>
</a>
</g>
</g>
<!-- Node24 -->
<g id="Node000024" class="node">
<title>Node24</title>
<g id="a_Node000024"><a xlink:href="tmc9660__bootloader_8cpp.html" target="_top" xlink:title=" ">
<polygon fill="white" stroke="#666666" points="716,-151 576,-151 576,-121 716,-121 716,-151"/>
<text text-anchor="start" x="584" y="-139" font-family="Helvetica,sans-Serif" font-size="10.00">../../src/bootloader</text>
<text text-anchor="middle" x="646" y="-128" font-family="Helvetica,sans-Serif" font-size="10.00">/tmc9660_bootloader.cpp</text>
</a>
</g>
</g>
<!-- Node18&#45;&gt;Node24 -->
<g id="edge35_Node000018_Node000024" class="edge">
<title>Node18&#45;&gt;Node24</title>
<g id="a_edge35_Node000018_Node000024"><a xlink:title=" ">
<path fill="none" stroke="#63b8ff" d="M527.9,-186.95C547.77,-177.58 575.57,-165.16 599.25,-155.05"/>
<polygon fill="#63b8ff" stroke="#63b8ff" points="600.93,-158.13 608.78,-151.01 598.2,-151.69 600.93,-158.13"/>
</a>
</g>
</g>
<!-- Node19&#45;&gt;Node5 -->
<g id="edge23_Node000019_Node000005" class="edge">
<title>Node19&#45;&gt;Node5</title>
<g id="a_edge23_Node000019_Node000005"><a xlink:title=" ">
<path fill="none" stroke="#63b8ff" d="M462.65,-126.36C471.98,-110.88 488.23,-77.92 474,-55 461.96,-35.62 438.71,-24.42 418.85,-18.11"/>
<polygon fill="#63b8ff" stroke="#63b8ff" points="419.73,-14.72 409.15,-15.31 417.79,-21.45 419.73,-14.72"/>
</a>
</g>
</g>
<!-- Node20&#45;&gt;Node3 -->
<g id="edge29_Node000020_Node000003" class="edge">
<title>Node20&#45;&gt;Node3</title>
<g id="a_edge29_Node000020_Node000003"><a xlink:title=" ">
<path fill="none" stroke="#63b8ff" d="M296.5,-126.41C347.17,-110.26 461.51,-75.21 560,-55 667.2,-33 796.52,-19.01 854.82,-13.36"/>
<polygon fill="#63b8ff" stroke="#63b8ff" points="855.24,-16.83 864.86,-12.4 854.57,-9.86 855.24,-16.83"/>
</a>
</g>
</g>
<!-- Node20&#45;&gt;Node5 -->
<g id="edge31_Node000020_Node000005" class="edge">
<title>Node20&#45;&gt;Node5</title>
<g id="a_edge31_Node000020_Node000005"><a xlink:title=" ">
<path fill="none" stroke="#63b8ff" d="M266.94,-126.38C261.94,-110.65 254,-76.88 269,-55 286.73,-29.12 321.85,-18.29 348.64,-13.76"/>
<polygon fill="#63b8ff" stroke="#63b8ff" points="349.42,-17.18 358.8,-12.26 348.4,-10.25 349.42,-17.18"/>
</a>
</g>
</g>
<!-- Node21 -->
<g id="Node000021" class="node">
<title>Node21</title>
<g id="a_Node000021"><a xlink:href="bootloader__utils_8hpp.html" target="_top" xlink:title="TMC9660 bootloader utility functions and helpers.">
<polygon fill="white" stroke="#666666" points="394,-79.5 278,-79.5 278,-60.5 394,-60.5 394,-79.5"/>
<text text-anchor="middle" x="336" y="-67.5" font-family="Helvetica,sans-Serif" font-size="10.00">bootloader_utils.hpp</text>
</a>
</g>
</g>
<!-- Node20&#45;&gt;Node21 -->
<g id="edge25_Node000020_Node000021" class="edge">
<title>Node20&#45;&gt;Node21</title>
<g id="a_edge25_Node000020_Node000021"><a xlink:title=" ">
<path fill="none" stroke="#63b8ff" d="M278.9,-126.37C289.27,-116.31 306.63,-99.48 319.49,-87.01"/>
<polygon fill="#63b8ff" stroke="#63b8ff" points="322.07,-89.38 326.82,-79.91 317.2,-84.35 322.07,-89.38"/>
</a>
</g>
</g>
<!-- Node22 -->
<g id="Node000022" class="node">
<title>Node22</title>
<g id="a_Node000022"><a xlink:title=" ">
<polygon fill="#e0e0e0" stroke="#999999" points="313.5,-19 260.5,-19 260.5,0 313.5,0 313.5,-19"/>
<text text-anchor="middle" x="287" y="-7" font-family="Helvetica,sans-Serif" font-size="10.00">cstddef</text>
</a>
</g>
</g>
<!-- Node20&#45;&gt;Node22 -->
<g id="edge30_Node000020_Node000022" class="edge">
<title>Node20&#45;&gt;Node22</title>
<g id="a_edge30_Node000020_Node000022"><a xlink:title=" ">
<path fill="none" stroke="#63b8ff" d="M261.16,-126.06C247.6,-111.21 224.38,-80.55 236,-55 241.62,-42.63 252.57,-32.36 262.89,-24.81"/>
<polygon fill="#63b8ff" stroke="#63b8ff" points="264.96,-27.63 271.27,-19.12 261.03,-21.84 264.96,-27.63"/>
</a>
</g>
</g>
<!-- Node21&#45;&gt;Node3 -->
<g id="edge26_Node000021_Node000003" class="edge">
<title>Node21&#45;&gt;Node3</title>
<g id="a_edge26_Node000021_Node000003"><a xlink:title=" ">
<path fill="none" stroke="#63b8ff" d="M376.25,-60.44C386.56,-58.45 397.66,-56.48 408,-55 575.49,-30.98 777.94,-17.07 854.57,-12.34"/>
<polygon fill="#63b8ff" stroke="#63b8ff" points="855.18,-15.81 864.95,-11.71 854.75,-8.83 855.18,-15.81"/>
</a>
</g>
</g>
<!-- Node21&#45;&gt;Node5 -->
<g id="edge28_Node000021_Node000005" class="edge">
<title>Node21&#45;&gt;Node5</title>
<g id="a_edge28_Node000021_Node000005"><a xlink:title=" ">
<path fill="none" stroke="#63b8ff" d="M343.08,-60.37C350.24,-51.64 361.49,-37.93 370.39,-27.09"/>
<polygon fill="#63b8ff" stroke="#63b8ff" points="373.25,-29.12 376.89,-19.17 367.84,-24.68 373.25,-29.12"/>
</a>
</g>
</g>
<!-- Node21&#45;&gt;Node22 -->
<g id="edge27_Node000021_Node000022" class="edge">
<title>Node21&#45;&gt;Node22</title>
<g id="a_edge27_Node000021_Node000022"><a xlink:title=" ">
<path fill="none" stroke="#63b8ff" d="M328.77,-60.37C321.46,-51.64 309.98,-37.93 300.9,-27.09"/>
<polygon fill="#63b8ff" stroke="#63b8ff" points="303.36,-24.59 294.26,-19.17 298,-29.08 303.36,-24.59"/>
</a>
</g>
</g>
<!-- Node24&#45;&gt;Node13 -->
<g id="edge37_Node000024_Node000013" class="edge">
<title>Node24&#45;&gt;Node13</title>
<g id="a_edge37_Node000024_Node000013"><a xlink:title=" ">
<path fill="none" stroke="#63b8ff" d="M716.12,-123.3C720.82,-122.52 725.48,-121.75 730,-121 814,-107.12 911.04,-91.23 972.68,-81.17"/>
<polygon fill="#63b8ff" stroke="#63b8ff" points="973.34,-84.61 982.64,-79.54 972.21,-77.7 973.34,-84.61"/>
</a>
</g>
</g>
<!-- Node24&#45;&gt;Node18 -->
<g id="edge36_Node000024_Node000018" class="edge">
<title>Node24&#45;&gt;Node18</title>
<g id="a_edge36_Node000024_Node000018"><a xlink:title=" ">
<path fill="none" stroke="#63b8ff" d="M620.17,-151.01C600.23,-160.43 572.27,-172.91 548.51,-183.05"/>
<polygon fill="#63b8ff" stroke="#63b8ff" points="547.14,-179.83 539.3,-186.95 549.87,-186.28 547.14,-179.83"/>
</a>
</g>
</g>
<!-- Node24&#45;&gt;Node23 -->
<g id="edge38_Node000024_Node000023" class="edge">
<title>Node24&#45;&gt;Node23</title>
<g id="a_edge38_Node000024_Node000023"><a xlink:title=" ">
<path fill="none" stroke="#63b8ff" d="M636.68,-120.8C630.39,-111.21 622.05,-98.5 615.37,-88.32"/>
<polygon fill="#63b8ff" stroke="#63b8ff" points="618.22,-86.28 609.8,-79.84 612.36,-90.13 618.22,-86.28"/>
</a>
</g>
</g>
<!-- Node25&#45;&gt;Node5 -->
<g id="edge40_Node000025_Node000005" class="edge">
<title>Node25&#45;&gt;Node5</title>
<g id="a_edge40_Node000025_Node000005"><a xlink:title=" ">
<path fill="none" stroke="#63b8ff" d="M146.31,-55.21C210.05,-43.22 299.65,-26.37 348.62,-17.15"/>
<polygon fill="#63b8ff" stroke="#63b8ff" points="349.54,-20.54 358.72,-15.26 348.24,-13.66 349.54,-20.54"/>
</a>
</g>
</g>
<!-- Node26&#45;&gt;Node2 -->
<g id="edge42_Node000026_Node000002" class="edge">
<title>Node26&#45;&gt;Node2</title>
<g id="a_edge42_Node000026_Node000002"><a xlink:title=" ">
<path fill="none" stroke="#63b8ff" d="M723.26,-211.52C755.23,-221.53 805.07,-238.21 836.95,-249.52"/>
<polygon fill="#63b8ff" stroke="#63b8ff" points="836.03,-252.91 846.63,-252.99 838.39,-246.32 836.03,-252.91"/>
</a>
</g>
</g>
<!-- Node26&#45;&gt;Node4 -->
<g id="edge43_Node000026_Node000004" class="edge">
<title>Node26&#45;&gt;Node4</title>
<g id="a_edge43_Node000026_Node000004"><a xlink:title=" ">
<path fill="none" stroke="#63b8ff" d="M706.89,-192.37C723.94,-181.78 753.07,-163.67 773.37,-151.06"/>
<polygon fill="#63b8ff" stroke="#63b8ff" points="775.35,-153.95 782,-145.7 771.66,-148 775.35,-153.95"/>
</a>
</g>
</g>
<!-- Node27&#45;&gt;Node3 -->
<g id="edge53_Node000027_Node000003" class="edge">
<title>Node27&#45;&gt;Node3</title>
<g id="a_edge53_Node000027_Node000003"><a xlink:title=" ">
<path fill="none" stroke="#63b8ff" d="M1552.48,-256.2C1472.32,-249.27 1344.98,-235.76 1301,-217 1281.21,-208.56 1282,-197.1 1263,-187 1197.09,-151.98 1004.04,-127.95 943,-85 921.85,-70.12 905,-45.02 895.26,-28.12"/>
<polygon fill="#63b8ff" stroke="#63b8ff" points="898.26,-26.32 890.37,-19.25 892.13,-29.7 898.26,-26.32"/>
</a>
</g>
</g>
<!-- Node27&#45;&gt;Node5 -->
<g id="edge56_Node000027_Node000005" class="edge">
<title>Node27&#45;&gt;Node5</title>
<g id="a_edge56_Node000027_Node000005"><a xlink:title=" ">
<path fill="none" stroke="#63b8ff" d="M1552.26,-257.9C1463.08,-252.38 1313.01,-239.98 1263,-217 1244.99,-208.72 1247.78,-195.77 1230,-187 1149.4,-147.23 1118.87,-169.91 1031,-151 859.02,-113.99 819.19,-91.03 647,-55 565.96,-38.04 469.84,-23.07 419.23,-15.57"/>
<polygon fill="#63b8ff" stroke="#63b8ff" points="419.55,-12.08 409.14,-14.09 418.53,-19.01 419.55,-12.08"/>
</a>
</g>
</g>
<!-- Node27&#45;&gt;Node8 -->
<g id="edge57_Node000027_Node000008" class="edge">
<title>Node27&#45;&gt;Node8</title>
<g id="a_edge57_Node000027_Node000008"><a xlink:title=" ">
<path fill="none" stroke="#63b8ff" d="M1552.34,-257.74C1474.62,-252.53 1344.57,-240.9 1235,-217 1231.78,-216.3 1228.46,-215.45 1225.15,-214.52"/>
<polygon fill="#63b8ff" stroke="#63b8ff" points="1226.01,-211.12 1215.42,-211.56 1223.97,-217.82 1226.01,-211.12"/>
</a>
</g>
</g>
<!-- Node27&#45;&gt;Node13 -->
<g id="edge45_Node000027_Node000013" class="edge">
<title>Node27&#45;&gt;Node13</title>
<g id="a_edge45_Node000027_Node000013"><a xlink:title=" ">
<path fill="none" stroke="#63b8ff" d="M1552.41,-259C1494.91,-254.92 1411.62,-244.34 1344,-217 1322.4,-208.27 1321.34,-198.38 1301,-187 1220.83,-142.14 1119.92,-102.33 1068.48,-83.14"/>
<polygon fill="#63b8ff" stroke="#63b8ff" points="1069.47,-79.77 1058.87,-79.58 1067.03,-86.34 1069.47,-79.77"/>
</a>
</g>
</g>
<!-- Node27&#45;&gt;Node14 -->
<g id="edge54_Node000027_Node000014" class="edge">
<title>Node27&#45;&gt;Node14</title>
<g id="a_edge54_Node000027_Node000014"><a xlink:title=" ">
<path fill="none" stroke="#63b8ff" d="M1637.89,-252.95C1650.71,-245.43 1667.38,-233.15 1675,-217 1680.69,-204.94 1680.77,-199.02 1675,-187 1635.09,-103.81 1534.73,-47.46 1484.54,-23.51"/>
<polygon fill="#63b8ff" stroke="#63b8ff" points="1485.75,-20.21 1475.21,-19.15 1482.79,-26.55 1485.75,-20.21"/>
</a>
</g>
</g>
<!-- Node27&#45;&gt;Node16 -->
<g id="edge55_Node000027_Node000016" class="edge">
<title>Node27&#45;&gt;Node16</title>
<g id="a_edge55_Node000027_Node000016"><a xlink:title=" ">
<path fill="none" stroke="#63b8ff" d="M1656.44,-252.99C1675.26,-246.48 1696.76,-235.38 1708,-217 1745.57,-155.58 1744.16,-117.26 1708,-55 1698.66,-38.92 1681.1,-28.17 1665,-21.27"/>
<polygon fill="#63b8ff" stroke="#63b8ff" points="1665.84,-17.84 1655.25,-17.45 1663.29,-24.35 1665.84,-17.84"/>
</a>
</g>
</g>
<!-- Node28 -->
<g id="Node000028" class="node">
<title>Node28</title>
<g id="a_Node000028"><a xlink:title=" ">
<polygon fill="#e0e0e0" stroke="#999999" points="1823.5,-211.5 1760.5,-211.5 1760.5,-192.5 1823.5,-192.5 1823.5,-211.5"/>
<text text-anchor="middle" x="1792" y="-199.5" font-family="Helvetica,sans-Serif" font-size="10.00">esp_log.h</text>
</a>
</g>
</g>
<!-- Node27&#45;&gt;Node28 -->
<g id="edge46_Node000027_Node000028" class="edge">
<title>Node27&#45;&gt;Node28</title>
<g id="a_edge46_Node000027_Node000028"><a xlink:title=" ">
<path fill="none" stroke="#63b8ff" d="M1645.86,-252.99C1675.25,-242.94 1724.31,-226.16 1757.39,-214.84"/>
<polygon fill="#63b8ff" stroke="#63b8ff" points="1758.78,-218.07 1767.11,-211.52 1756.51,-211.44 1758.78,-218.07"/>
</a>
</g>
</g>
<!-- Node29 -->
<g id="Node000029" class="node">
<title>Node29</title>
<g id="a_Node000029"><a xlink:title=" ">
<polygon fill="#e0e0e0" stroke="#999999" points="1463,-211.5 1353,-211.5 1353,-192.5 1463,-192.5 1463,-211.5"/>
<text text-anchor="middle" x="1408" y="-199.5" font-family="Helvetica,sans-Serif" font-size="10.00">driver/spi_master.h</text>
</a>
</g>
</g>
<!-- Node27&#45;&gt;Node29 -->
<g id="edge47_Node000027_Node000029" class="edge">
<title>Node27&#45;&gt;Node29</title>
<g id="a_edge47_Node000027_Node000029"><a xlink:title=" ">
<path fill="none" stroke="#63b8ff" d="M1590.03,-252.99C1552.72,-242.75 1489.94,-225.5 1448.73,-214.19"/>
<polygon fill="#63b8ff" stroke="#63b8ff" points="1449.58,-210.79 1439.01,-211.52 1447.73,-217.54 1449.58,-210.79"/>
</a>
</g>
</g>
<!-- Node30 -->
<g id="Node000030" class="node">
<title>Node30</title>
<g id="a_Node000030"><a xlink:title=" ">
<polygon fill="#e0e0e0" stroke="#999999" points="1558.5,-211.5 1481.5,-211.5 1481.5,-192.5 1558.5,-192.5 1558.5,-211.5"/>
<text text-anchor="middle" x="1520" y="-199.5" font-family="Helvetica,sans-Serif" font-size="10.00">driver/uart.h</text>
</a>
</g>
</g>
<!-- Node27&#45;&gt;Node30 -->
<g id="edge48_Node000027_Node000030" class="edge">
<title>Node27&#45;&gt;Node30</title>
<g id="a_edge48_Node000027_Node000030"><a xlink:title=" ">
<path fill="none" stroke="#63b8ff" d="M1606.1,-252.87C1589.69,-243.36 1563.07,-227.95 1543.77,-216.77"/>
<polygon fill="#63b8ff" stroke="#63b8ff" points="1545.37,-213.65 1534.96,-211.67 1541.86,-219.71 1545.37,-213.65"/>
</a>
</g>
</g>
<!-- Node31 -->
<g id="Node000031" class="node">
<title>Node31</title>
<g id="a_Node000031"><a xlink:title=" ">
<polygon fill="#e0e0e0" stroke="#999999" points="1920,-211.5 1842,-211.5 1842,-192.5 1920,-192.5 1920,-211.5"/>
<text text-anchor="middle" x="1881" y="-199.5" font-family="Helvetica,sans-Serif" font-size="10.00">driver/gpio.h</text>
</a>
</g>
</g>
<!-- Node27&#45;&gt;Node31 -->
<g id="edge49_Node000027_Node000031" class="edge">
<title>Node27&#45;&gt;Node31</title>
<g id="a_edge49_Node000027_Node000031"><a xlink:title=" ">
<path fill="none" stroke="#63b8ff" d="M1666.72,-252.96C1709.81,-244.66 1776.09,-231.25 1833,-217 1836.39,-216.15 1839.89,-215.22 1843.4,-214.26"/>
<polygon fill="#63b8ff" stroke="#63b8ff" points="1844.5,-217.59 1853.18,-211.51 1842.6,-210.85 1844.5,-217.59"/>
</a>
</g>
</g>
<!-- Node27&#45;&gt;Node32 -->
<g id="edge50_Node000027_Node000032" class="edge">
<title>Node27&#45;&gt;Node32</title>
<g id="a_edge50_Node000027_Node000032"><a xlink:title=" ">
<path fill="none" stroke="#63b8ff" d="M1689.1,-252.96C1751.65,-244.81 1846.82,-231.64 1929,-217 1934.76,-215.97 1940.79,-214.81 1946.76,-213.61"/>
<polygon fill="#63b8ff" stroke="#63b8ff" points="1947.6,-217.01 1956.69,-211.57 1946.19,-210.16 1947.6,-217.01"/>
</a>
</g>
</g>
<!-- Node27&#45;&gt;Node33 -->
<g id="edge51_Node000027_Node000033" class="edge">
<title>Node27&#45;&gt;Node33</title>
<g id="a_edge51_Node000027_Node000033"><a xlink:title=" ">
<path fill="none" stroke="#63b8ff" d="M1689.6,-259.29C1851.95,-253.79 2256.12,-238.33 2390,-217 2394.85,-216.23 2399.91,-215.19 2404.88,-214.04"/>
<polygon fill="#63b8ff" stroke="#63b8ff" points="2406.04,-217.36 2414.89,-211.54 2404.34,-210.57 2406.04,-217.36"/>
</a>
</g>
</g>
<!-- Node34 -->
<g id="Node000034" class="node">
<title>Node34</title>
<g id="a_Node000034"><a xlink:title=" ">
<polygon fill="#e0e0e0" stroke="#999999" points="1665.5,-211.5 1576.5,-211.5 1576.5,-192.5 1665.5,-192.5 1665.5,-211.5"/>
<text text-anchor="middle" x="1621" y="-199.5" font-family="Helvetica,sans-Serif" font-size="10.00">esp_rom_sys.h</text>
</a>
</g>
</g>
<!-- Node27&#45;&gt;Node34 -->
<g id="edge52_Node000027_Node000034" class="edge">
<title>Node27&#45;&gt;Node34</title>
<g id="a_edge52_Node000027_Node000034"><a xlink:title=" ">
<path fill="none" stroke="#63b8ff" d="M1621,-252.87C1621,-244.75 1621,-232.31 1621,-221.89"/>
<polygon fill="#63b8ff" stroke="#63b8ff" points="1624.5,-221.67 1621,-211.67 1617.5,-221.67 1624.5,-221.67"/>
</a>
</g>
</g>
<!-- Node35&#45;&gt;Node28 -->
<g id="edge59_Node000035_Node000028" class="edge">
<title>Node35&#45;&gt;Node28</title>
<g id="a_edge59_Node000035_Node000028"><a xlink:title=" ">
<path fill="none" stroke="#63b8ff" d="M1961.63,-252.97C1928.76,-244.42 1877.18,-230.6 1833,-217 1830.7,-216.29 1828.32,-215.54 1825.94,-214.77"/>
<polygon fill="#63b8ff" stroke="#63b8ff" points="1826.8,-211.36 1816.2,-211.54 1824.59,-218.01 1826.8,-211.36"/>
</a>
</g>
</g>
<!-- Node35&#45;&gt;Node31 -->
<g id="edge61_Node000035_Node000031" class="edge">
<title>Node35&#45;&gt;Node31</title>
<g id="a_edge61_Node000035_Node000031"><a xlink:title=" ">
<path fill="none" stroke="#63b8ff" d="M1978.18,-252.87C1959.4,-243.23 1928.8,-227.53 1906.95,-216.31"/>
<polygon fill="#63b8ff" stroke="#63b8ff" points="1908.39,-213.12 1897.89,-211.67 1905.19,-219.35 1908.39,-213.12"/>
</a>
</g>
</g>
<!-- Node35&#45;&gt;Node32 -->
<g id="edge62_Node000035_Node000032" class="edge">
<title>Node35&#45;&gt;Node32</title>
<g id="a_edge62_Node000035_Node000032"><a xlink:title=" ">
<path fill="none" stroke="#63b8ff" d="M1995,-252.87C1995,-244.75 1995,-232.31 1995,-221.89"/>
<polygon fill="#63b8ff" stroke="#63b8ff" points="1998.5,-221.67 1995,-211.67 1991.5,-221.67 1998.5,-221.67"/>
</a>
</g>
</g>
<!-- Node35&#45;&gt;Node33 -->
<g id="edge65_Node000035_Node000033" class="edge">
<title>Node35&#45;&gt;Node33</title>
<g id="a_edge65_Node000035_Node000033"><a xlink:title=" ">
<path fill="none" stroke="#63b8ff" d="M2045.29,-254.71C2049.93,-254.11 2054.55,-253.54 2059,-253 2205.91,-235.26 2244.5,-243.97 2390,-217 2394.49,-216.17 2399.16,-215.16 2403.78,-214.06"/>
<polygon fill="#63b8ff" stroke="#63b8ff" points="2404.89,-217.39 2413.74,-211.57 2403.19,-210.6 2404.89,-217.39"/>
</a>
</g>
</g>
<!-- Node36 -->
<g id="Node000036" class="node">
<title>Node36</title>
<g id="a_Node000036"><a xlink:title=" ">
<polygon fill="#e0e0e0" stroke="#999999" points="2144,-211.5 2070,-211.5 2070,-192.5 2144,-192.5 2144,-211.5"/>
<text text-anchor="middle" x="2107" y="-199.5" font-family="Helvetica,sans-Serif" font-size="10.00">esp_timer.h</text>
</a>
</g>
</g>
<!-- Node35&#45;&gt;Node36 -->
<g id="edge60_Node000035_Node000036" class="edge">
<title>Node35&#45;&gt;Node36</title>
<g id="a_edge60_Node000035_Node000036"><a xlink:title=" ">
<path fill="none" stroke="#63b8ff" d="M2011.53,-252.87C2029.97,-243.23 2060.04,-227.53 2081.51,-216.31"/>
<polygon fill="#63b8ff" stroke="#63b8ff" points="2083.16,-219.4 2090.41,-211.67 2079.92,-213.19 2083.16,-219.4"/>
</a>
</g>
</g>
<!-- Node37 -->
<g id="Node000037" class="node">
<title>Node37</title>
<g id="a_Node000037"><a xlink:title=" ">
<polygon fill="#e0e0e0" stroke="#999999" points="2259.5,-211.5 2162.5,-211.5 2162.5,-192.5 2259.5,-192.5 2259.5,-211.5"/>
<text text-anchor="middle" x="2211" y="-199.5" font-family="Helvetica,sans-Serif" font-size="10.00">freertos/queue.h</text>
</a>
</g>
</g>
<!-- Node35&#45;&gt;Node37 -->
<g id="edge63_Node000035_Node000037" class="edge">
<title>Node35&#45;&gt;Node37</title>
<g id="a_edge63_Node000035_Node000037"><a xlink:title=" ">
<path fill="none" stroke="#63b8ff" d="M2026.41,-252.99C2064.24,-242.75 2127.91,-225.5 2169.69,-214.19"/>
<polygon fill="#63b8ff" stroke="#63b8ff" points="2170.82,-217.51 2179.55,-211.52 2168.99,-210.75 2170.82,-217.51"/>
</a>
</g>
</g>
<!-- Node38 -->
<g id="Node000038" class="node">
<title>Node38</title>
<g id="a_Node000038"><a xlink:title=" ">
<polygon fill="#e0e0e0" stroke="#999999" points="2380.5,-211.5 2277.5,-211.5 2277.5,-192.5 2380.5,-192.5 2380.5,-211.5"/>
<text text-anchor="middle" x="2329" y="-199.5" font-family="Helvetica,sans-Serif" font-size="10.00">freertos/semphr.h</text>
</a>
</g>
</g>
<!-- Node35&#45;&gt;Node38 -->
<g id="edge64_Node000035_Node000038" class="edge">
<title>Node35&#45;&gt;Node38</title>
<g id="a_edge64_Node000035_Node000038"><a xlink:title=" ">
<path fill="none" stroke="#63b8ff" d="M2045.18,-254.4C2100.27,-246.36 2191.23,-232.37 2269,-217 2273.99,-216.01 2279.19,-214.91 2284.36,-213.77"/>
<polygon fill="#63b8ff" stroke="#63b8ff" points="2285.21,-217.17 2294.19,-211.55 2283.66,-210.34 2285.21,-217.17"/>
</a>
</g>
</g>
</g>
</svg>
