<?xml version="1.0" encoding="UTF-8" standalone="no"?>
<!DOCTYPE svg PUBLIC "-//W3C//DTD SVG 1.1//EN"
 "http://www.w3.org/Graphics/SVG/1.1/DTD/svg11.dtd">
<!-- Generated by graphviz version 2.43.0 (0)
 -->
<!-- Title: test_bldc_telemetry_monitoring Pages: 1 -->
<svg width="462pt" height="101pt"
 viewBox="0.00 0.00 462.00 101.00" xmlns="http://www.w3.org/2000/svg" xmlns:xlink="http://www.w3.org/1999/xlink">
<g id="graph0" class="graph" transform="scale(1 1) rotate(0) translate(4 97)">
<title>test_bldc_telemetry_monitoring</title>
<!-- Node1 -->
<g id="Node000001" class="node">
<title>Node1</title>
<g id="a_Node000001"><a xlink:title=" ">
<polygon fill="#999999" stroke="#666666" points="114,-61.5 0,-61.5 0,-31.5 114,-31.5 114,-61.5"/>
<text text-anchor="start" x="8" y="-49.5" font-family="Helvetica,sans-Serif" font-size="10.00">test_bldc_telemetry</text>
<text text-anchor="middle" x="57" y="-38.5" font-family="Helvetica,sans-Serif" font-size="10.00">_monitoring</text>
</a>
</g>
</g>
<!-- Node2 -->
<g id="Node000002" class="node">
<title>Node2</title>
<g id="a_Node000002"><a xlink:href="bootloader__comprehensive__test_8cpp.html#a17c70b1902c13ec11ca1410da2842671" target="_top" xlink:title=" ">
<polygon fill="white" stroke="#666666" points="258.5,-93 153.5,-93 153.5,-74 258.5,-74 258.5,-93"/>
<text text-anchor="middle" x="206" y="-81" font-family="Helvetica,sans-Serif" font-size="10.00">create_test_driver</text>
</a>
</g>
</g>
<!-- Node1&#45;&gt;Node2 -->
<g id="edge1_Node000001_Node000002" class="edge">
<title>Node1&#45;&gt;Node2</title>
<g id="a_edge1_Node000001_Node000002"><a xlink:title=" ">
<path fill="none" stroke="#63b8ff" d="M114.41,-60.7C128.62,-64.27 143.72,-68.08 157.44,-71.53"/>
<polygon fill="#63b8ff" stroke="#63b8ff" points="156.6,-74.93 167.16,-73.97 158.31,-68.14 156.6,-74.93"/>
</a>
</g>
</g>
<!-- Node4 -->
<g id="Node000004" class="node">
<title>Node4</title>
<g id="a_Node000004"><a xlink:href="bldc__comprehensive__test_8cpp.html#af43032e01db4534397e54f650f60cde0" target="_top" xlink:title=" ">
<polygon fill="white" stroke="#666666" points="249,-56 163,-56 163,-37 249,-37 249,-56"/>
<text text-anchor="middle" x="206" y="-44" font-family="Helvetica,sans-Serif" font-size="10.00">get_spi_driver</text>
</a>
</g>
</g>
<!-- Node1&#45;&gt;Node4 -->
<g id="edge3_Node000001_Node000004" class="edge">
<title>Node1&#45;&gt;Node4</title>
<g id="a_edge3_Node000001_Node000004"><a xlink:title=" ">
<path fill="none" stroke="#63b8ff" d="M114.41,-46.5C126.94,-46.5 140.16,-46.5 152.52,-46.5"/>
<polygon fill="#63b8ff" stroke="#63b8ff" points="152.67,-50 162.67,-46.5 152.67,-43 152.67,-50"/>
</a>
</g>
</g>
<!-- Node5 -->
<g id="Node000005" class="node">
<title>Node5</title>
<g id="a_Node000005"><a xlink:href="bldc__comprehensive__test_8cpp.html#a067ecd726a6c9d9d803a8c714838234d" target="_top" xlink:title=" ">
<polygon fill="white" stroke="#666666" points="262,-19 150,-19 150,0 262,0 262,-19"/>
<text text-anchor="middle" x="206" y="-7" font-family="Helvetica,sans-Serif" font-size="10.00">log_telemetry_data</text>
</a>
</g>
</g>
<!-- Node1&#45;&gt;Node5 -->
<g id="edge4_Node000001_Node000005" class="edge">
<title>Node1&#45;&gt;Node5</title>
<g id="a_edge4_Node000001_Node000005"><a xlink:title=" ">
<path fill="none" stroke="#63b8ff" d="M114.41,-32.3C128.62,-28.73 143.72,-24.92 157.44,-21.47"/>
<polygon fill="#63b8ff" stroke="#63b8ff" points="158.31,-24.86 167.16,-19.03 156.6,-18.07 158.31,-24.86"/>
</a>
</g>
</g>
<!-- Node3 -->
<g id="Node000003" class="node">
<title>Node3</title>
<g id="a_Node000003"><a xlink:href="esp32__tmc9660__bus_8hpp.html#adeea40d44b312d8739348358e618c1a8" target="_top" xlink:title="Create and initialize SPI communication interface.">
<polygon fill="white" stroke="#666666" points="454,-93 298,-93 298,-74 454,-74 454,-93"/>
<text text-anchor="middle" x="376" y="-81" font-family="Helvetica,sans-Serif" font-size="10.00">CreateEsp32Tmc9660SpiBus</text>
</a>
</g>
</g>
<!-- Node2&#45;&gt;Node3 -->
<g id="edge2_Node000002_Node000003" class="edge">
<title>Node2&#45;&gt;Node3</title>
<g id="a_edge2_Node000002_Node000003"><a xlink:title=" ">
<path fill="none" stroke="#63b8ff" d="M258.78,-83.5C267.94,-83.5 277.7,-83.5 287.52,-83.5"/>
<polygon fill="#63b8ff" stroke="#63b8ff" points="287.76,-87 297.76,-83.5 287.76,-80 287.76,-87"/>
</a>
</g>
</g>
</g>
</svg>
