<?xml version="1.0" encoding="UTF-8" standalone="no"?>
<!DOCTYPE svg PUBLIC "-//W3C//DTD SVG 1.1//EN"
 "http://www.w3.org/Graphics/SVG/1.1/DTD/svg11.dtd">
<!-- Generated by graphviz version 2.43.0 (0)
 -->
<!-- Title: test_stepper_foc_position_control Pages: 1 -->
<svg width="433pt" height="64pt"
 viewBox="0.00 0.00 433.00 64.00" xmlns="http://www.w3.org/2000/svg" xmlns:xlink="http://www.w3.org/1999/xlink">
<g id="graph0" class="graph" transform="scale(1 1) rotate(0) translate(4 60)">
<title>test_stepper_foc_position_control</title>
<!-- Node1 -->
<g id="Node000001" class="node">
<title>Node1</title>
<g id="a_Node000001"><a xlink:title=" ">
<polygon fill="#999999" stroke="#666666" points="142,-42.5 0,-42.5 0,-12.5 142,-12.5 142,-42.5"/>
<text text-anchor="start" x="8" y="-30.5" font-family="Helvetica,sans-Serif" font-size="10.00">test_stepper_foc_position</text>
<text text-anchor="middle" x="71" y="-19.5" font-family="Helvetica,sans-Serif" font-size="10.00">_control</text>
</a>
</g>
</g>
<!-- Node2 -->
<g id="Node000002" class="node">
<title>Node2</title>
<g id="a_Node000002"><a xlink:href="bootloader__comprehensive__test_8cpp.html#a17c70b1902c13ec11ca1410da2842671" target="_top" xlink:title=" ">
<polygon fill="white" stroke="#666666" points="283,-56 178,-56 178,-37 283,-37 283,-56"/>
<text text-anchor="middle" x="230.5" y="-44" font-family="Helvetica,sans-Serif" font-size="10.00">create_test_driver</text>
</a>
</g>
</g>
<!-- Node1&#45;&gt;Node2 -->
<g id="edge1_Node000001_Node000002" class="edge">
<title>Node1&#45;&gt;Node2</title>
<g id="a_edge1_Node000001_Node000002"><a xlink:title=" ">
<path fill="none" stroke="#63b8ff" d="M142.46,-36C150.96,-37.03 159.59,-38.07 167.95,-39.08"/>
<polygon fill="#63b8ff" stroke="#63b8ff" points="167.64,-42.56 177.99,-40.29 168.48,-35.61 167.64,-42.56"/>
</a>
</g>
</g>
<!-- Node4 -->
<g id="Node000004" class="node">
<title>Node4</title>
<g id="a_Node000004"><a xlink:href="stepper__comprehensive__test_8cpp.html#af43032e01db4534397e54f650f60cde0" target="_top" xlink:title=" ">
<polygon fill="white" stroke="#666666" points="273.5,-19 187.5,-19 187.5,0 273.5,0 273.5,-19"/>
<text text-anchor="middle" x="230.5" y="-7" font-family="Helvetica,sans-Serif" font-size="10.00">get_spi_driver</text>
</a>
</g>
</g>
<!-- Node1&#45;&gt;Node4 -->
<g id="edge3_Node000001_Node000004" class="edge">
<title>Node1&#45;&gt;Node4</title>
<g id="a_edge3_Node000001_Node000004"><a xlink:title=" ">
<path fill="none" stroke="#63b8ff" d="M142.46,-19.45C154.12,-18.11 166.03,-16.75 177.15,-15.48"/>
<polygon fill="#63b8ff" stroke="#63b8ff" points="177.56,-18.96 187.1,-14.35 176.77,-12 177.56,-18.96"/>
</a>
</g>
</g>
<!-- Node3 -->
<g id="Node000003" class="node">
<title>Node3</title>
<g id="a_Node000003"><a xlink:href="esp32__tmc9660__bus_8hpp.html#aac17f4cb878146d2d72c9cae900edbe8" target="_top" xlink:title="Create and initialize SPI communication interface.">
<polygon fill="white" stroke="#666666" points="425,-56 319,-56 319,-37 425,-37 425,-56"/>
<text text-anchor="middle" x="372" y="-44" font-family="Helvetica,sans-Serif" font-size="10.00">createSPIInterface</text>
</a>
</g>
</g>
<!-- Node2&#45;&gt;Node3 -->
<g id="edge2_Node000002_Node000003" class="edge">
<title>Node2&#45;&gt;Node3</title>
<g id="a_edge2_Node000002_Node000003"><a xlink:title=" ">
<path fill="none" stroke="#63b8ff" d="M283.05,-46.5C291.33,-46.5 299.97,-46.5 308.47,-46.5"/>
<polygon fill="#63b8ff" stroke="#63b8ff" points="308.73,-50 318.73,-46.5 308.73,-43 308.73,-50"/>
</a>
</g>
</g>
</g>
</svg>
