<?xml version="1.0" encoding="UTF-8" standalone="no"?>
<!DOCTYPE svg PUBLIC "-//W3C//DTD SVG 1.1//EN"
 "http://www.w3.org/Graphics/SVG/1.1/DTD/svg11.dtd">
<!-- Generated by graphviz version 2.43.0 (0)
 -->
<!-- Title: tmc9660::TMC9660Bootloader::getAllBootloaderInfo Pages: 1 -->
<svg width="572pt" height="806pt"
 viewBox="0.00 0.00 572.00 806.00" xmlns="http://www.w3.org/2000/svg" xmlns:xlink="http://www.w3.org/1999/xlink">
<g id="graph0" class="graph" transform="scale(1 1) rotate(0) translate(4 802)">
<title>tmc9660::TMC9660Bootloader::getAllBootloaderInfo</title>
<!-- Node1 -->
<g id="Node000001" class="node">
<title>Node1</title>
<g id="a_Node000001"><a xlink:title="Retrieve and log all available bootloader information.">
<polygon fill="#999999" stroke="#666666" points="164,-414 0,-414 0,-384 164,-384 164,-414"/>
<text text-anchor="start" x="8" y="-402" font-family="Helvetica,sans-Serif" font-size="10.00">tmc9660::TMC9660Bootloader</text>
<text text-anchor="middle" x="82" y="-391" font-family="Helvetica,sans-Serif" font-size="10.00">::getAllBootloaderInfo</text>
</a>
</g>
</g>
<!-- Node2 -->
<g id="Node000002" class="node">
<title>Node2</title>
<g id="a_Node000002"><a xlink:href="classtmc9660_1_1TMC9660Bootloader.html#a462954d6543822500923606102fd2781" target="_top" xlink:title="Get the currently selected memory bank.">
<polygon fill="white" stroke="#666666" points="364,-798 200,-798 200,-768 364,-768 364,-798"/>
<text text-anchor="start" x="208" y="-786" font-family="Helvetica,sans-Serif" font-size="10.00">tmc9660::TMC9660Bootloader</text>
<text text-anchor="middle" x="282" y="-775" font-family="Helvetica,sans-Serif" font-size="10.00">::getBank</text>
</a>
</g>
</g>
<!-- Node1&#45;&gt;Node2 -->
<g id="edge1_Node000001_Node000002" class="edge">
<title>Node1&#45;&gt;Node2</title>
<g id="a_edge1_Node000001_Node000002"><a xlink:title=" ">
<path fill="none" stroke="#63b8ff" d="M83.2,-414.21C84.75,-469.14 97.61,-659.26 200,-759 201.08,-760.06 202.21,-761.06 203.38,-762.03"/>
<polygon fill="#63b8ff" stroke="#63b8ff" points="201.39,-764.91 211.58,-767.78 205.4,-759.18 201.39,-764.91"/>
</a>
</g>
</g>
<!-- Node3 -->
<g id="Node000003" class="node">
<title>Node3</title>
<g id="a_Node000003"><a xlink:href="classtmc9660_1_1TMC9660Bootloader.html#af1b2e4a33076a78fa2165f3e3c6ca788" target="_top" xlink:title="Get bootloader version information.">
<polygon fill="white" stroke="#666666" points="364,-750 200,-750 200,-720 364,-720 364,-750"/>
<text text-anchor="start" x="208" y="-738" font-family="Helvetica,sans-Serif" font-size="10.00">tmc9660::TMC9660Bootloader</text>
<text text-anchor="middle" x="282" y="-727" font-family="Helvetica,sans-Serif" font-size="10.00">::getBootloaderVersion</text>
</a>
</g>
</g>
<!-- Node1&#45;&gt;Node3 -->
<g id="edge2_Node000001_Node000003" class="edge">
<title>Node1&#45;&gt;Node3</title>
<g id="a_edge2_Node000001_Node000003"><a xlink:title=" ">
<path fill="none" stroke="#63b8ff" d="M84.07,-414.27C88.42,-464.53 109.21,-626.41 200,-711 201.14,-712.06 202.33,-713.08 203.55,-714.05"/>
<polygon fill="#63b8ff" stroke="#63b8ff" points="201.89,-717.15 212.14,-719.83 205.79,-711.34 201.89,-717.15"/>
</a>
</g>
</g>
<!-- Node5 -->
<g id="Node000005" class="node">
<title>Node5</title>
<g id="a_Node000005"><a xlink:href="classtmc9660_1_1TMC9660Bootloader.html#a3c2c900f873b81afca1c30808a3e2162" target="_top" xlink:title="Get system frequency in MHz.">
<polygon fill="white" stroke="#666666" points="364,-702 200,-702 200,-672 364,-672 364,-702"/>
<text text-anchor="start" x="208" y="-690" font-family="Helvetica,sans-Serif" font-size="10.00">tmc9660::TMC9660Bootloader</text>
<text text-anchor="middle" x="282" y="-679" font-family="Helvetica,sans-Serif" font-size="10.00">::getChipFrequency</text>
</a>
</g>
</g>
<!-- Node1&#45;&gt;Node5 -->
<g id="edge4_Node000001_Node000005" class="edge">
<title>Node1&#45;&gt;Node5</title>
<g id="a_edge4_Node000001_Node000005"><a xlink:title=" ">
<path fill="none" stroke="#63b8ff" d="M85.21,-414.13C92.58,-459.11 120.53,-593.18 200,-663 201.33,-664.16 202.71,-665.27 204.13,-666.33"/>
<polygon fill="#63b8ff" stroke="#63b8ff" points="202.43,-669.39 212.75,-671.8 206.18,-663.48 202.43,-669.39"/>
</a>
</g>
</g>
<!-- Node7 -->
<g id="Node000007" class="node">
<title>Node7</title>
<g id="a_Node000007"><a xlink:href="classtmc9660_1_1TMC9660Bootloader.html#a90f7edeb2d4fbb5b4435f1d4a85012d6" target="_top" xlink:title="Get chip type (should return 0x544D0001 for TMC9660).">
<polygon fill="white" stroke="#666666" points="364,-654 200,-654 200,-624 364,-624 364,-654"/>
<text text-anchor="start" x="208" y="-642" font-family="Helvetica,sans-Serif" font-size="10.00">tmc9660::TMC9660Bootloader</text>
<text text-anchor="middle" x="282" y="-631" font-family="Helvetica,sans-Serif" font-size="10.00">::getChipType</text>
</a>
</g>
</g>
<!-- Node1&#45;&gt;Node7 -->
<g id="edge6_Node000001_Node000007" class="edge">
<title>Node1&#45;&gt;Node7</title>
<g id="a_edge6_Node000001_Node000007"><a xlink:title=" ">
<path fill="none" stroke="#63b8ff" d="M86.84,-414.17C97.58,-453.52 131.75,-559.67 200,-615 201.58,-616.28 203.23,-617.49 204.93,-618.64"/>
<polygon fill="#63b8ff" stroke="#63b8ff" points="203.44,-621.83 213.84,-623.86 206.98,-615.79 203.44,-621.83"/>
</a>
</g>
</g>
<!-- Node8 -->
<g id="Node000008" class="node">
<title>Node8</title>
<g id="a_Node000008"><a xlink:href="classtmc9660_1_1TMC9660Bootloader.html#a0150afba26d1d7062ea6bb5085684355" target="_top" xlink:title="Get chip variant (TMC9660 reports value 2).">
<polygon fill="white" stroke="#666666" points="364,-606 200,-606 200,-576 364,-576 364,-606"/>
<text text-anchor="start" x="208" y="-594" font-family="Helvetica,sans-Serif" font-size="10.00">tmc9660::TMC9660Bootloader</text>
<text text-anchor="middle" x="282" y="-583" font-family="Helvetica,sans-Serif" font-size="10.00">::getChipVariant</text>
</a>
</g>
</g>
<!-- Node1&#45;&gt;Node8 -->
<g id="edge8_Node000001_Node000008" class="edge">
<title>Node1&#45;&gt;Node8</title>
<g id="a_edge8_Node000001_Node000008"><a xlink:title=" ">
<path fill="none" stroke="#63b8ff" d="M89.29,-414.12C103.76,-447.05 142.65,-525.6 200,-567 202.08,-568.5 204.26,-569.91 206.5,-571.23"/>
<polygon fill="#63b8ff" stroke="#63b8ff" points="204.99,-574.39 215.47,-575.91 208.22,-568.18 204.99,-574.39"/>
</a>
</g>
</g>
<!-- Node9 -->
<g id="Node000009" class="node">
<title>Node9</title>
<g id="a_Node000009"><a xlink:href="classtmc9660_1_1TMC9660Bootloader.html#ac602c45eb0580c9af7817404b035d0f8" target="_top" xlink:title="Get chip version (silicon revision).">
<polygon fill="white" stroke="#666666" points="364,-558 200,-558 200,-528 364,-528 364,-558"/>
<text text-anchor="start" x="208" y="-546" font-family="Helvetica,sans-Serif" font-size="10.00">tmc9660::TMC9660Bootloader</text>
<text text-anchor="middle" x="282" y="-535" font-family="Helvetica,sans-Serif" font-size="10.00">::getChipVersion</text>
</a>
</g>
</g>
<!-- Node1&#45;&gt;Node9 -->
<g id="edge10_Node000001_Node000009" class="edge">
<title>Node1&#45;&gt;Node9</title>
<g id="a_edge10_Node000001_Node000009"><a xlink:title=" ">
<path fill="none" stroke="#63b8ff" d="M93.76,-414.33C112.46,-439.81 153.42,-490.88 200,-519 202.83,-520.71 205.78,-522.3 208.82,-523.78"/>
<polygon fill="#63b8ff" stroke="#63b8ff" points="207.58,-527.06 218.14,-527.91 210.42,-520.66 207.58,-527.06"/>
</a>
</g>
</g>
<!-- Node10 -->
<g id="Node000010" class="node">
<title>Node10</title>
<g id="a_Node000010"><a xlink:href="classtmc9660_1_1TMC9660Bootloader.html#a2c3ddb9d549bde1dbc6b0f8ee1fa3a9e" target="_top" xlink:title="Get CONFIG memory bank size.">
<polygon fill="white" stroke="#666666" points="364,-510 200,-510 200,-480 364,-480 364,-510"/>
<text text-anchor="start" x="208" y="-498" font-family="Helvetica,sans-Serif" font-size="10.00">tmc9660::TMC9660Bootloader</text>
<text text-anchor="middle" x="282" y="-487" font-family="Helvetica,sans-Serif" font-size="10.00">::getConfigMemSize</text>
</a>
</g>
</g>
<!-- Node1&#45;&gt;Node10 -->
<g id="edge12_Node000001_Node000010" class="edge">
<title>Node1&#45;&gt;Node10</title>
<g id="a_edge12_Node000001_Node000010"><a xlink:title=" ">
<path fill="none" stroke="#63b8ff" d="M103.63,-414.04C126.31,-429.99 164.28,-455.06 200,-471 204.37,-472.95 208.95,-474.8 213.6,-476.53"/>
<polygon fill="#63b8ff" stroke="#63b8ff" points="212.64,-479.9 223.23,-479.93 214.97,-473.3 212.64,-479.9"/>
</a>
</g>
</g>
<!-- Node11 -->
<g id="Node000011" class="node">
<title>Node11</title>
<g id="a_Node000011"><a xlink:href="classtmc9660_1_1TMC9660Bootloader.html#a38b19250ce87dbe7cf6a0008fe380db6" target="_top" xlink:title="Get CONFIG memory bank start address.">
<polygon fill="white" stroke="#666666" points="364,-462 200,-462 200,-432 364,-432 364,-462"/>
<text text-anchor="start" x="208" y="-450" font-family="Helvetica,sans-Serif" font-size="10.00">tmc9660::TMC9660Bootloader</text>
<text text-anchor="middle" x="282" y="-439" font-family="Helvetica,sans-Serif" font-size="10.00">::getConfigMemStart</text>
</a>
</g>
</g>
<!-- Node1&#45;&gt;Node11 -->
<g id="edge14_Node000001_Node000011" class="edge">
<title>Node1&#45;&gt;Node11</title>
<g id="a_edge14_Node000001_Node000011"><a xlink:title=" ">
<path fill="none" stroke="#63b8ff" d="M145.11,-414.06C165.47,-418.99 188.26,-424.52 209.28,-429.61"/>
<polygon fill="#63b8ff" stroke="#63b8ff" points="208.57,-433.04 219.12,-432 210.22,-426.24 208.57,-433.04"/>
</a>
</g>
</g>
<!-- Node12 -->
<g id="Node000012" class="node">
<title>Node12</title>
<g id="a_Node000012"><a xlink:href="classtmc9660_1_1TMC9660Bootloader.html#a721b8134b72ac1a36cf71c626dbcbe7b" target="_top" xlink:title="Get available feature flags.">
<polygon fill="white" stroke="#666666" points="364,-174 200,-174 200,-144 364,-144 364,-174"/>
<text text-anchor="start" x="208" y="-162" font-family="Helvetica,sans-Serif" font-size="10.00">tmc9660::TMC9660Bootloader</text>
<text text-anchor="middle" x="282" y="-151" font-family="Helvetica,sans-Serif" font-size="10.00">::getFeatures</text>
</a>
</g>
</g>
<!-- Node1&#45;&gt;Node12 -->
<g id="edge16_Node000001_Node000012" class="edge">
<title>Node1&#45;&gt;Node12</title>
<g id="a_edge16_Node000001_Node000012"><a xlink:title=" ">
<path fill="none" stroke="#63b8ff" d="M86.84,-383.83C97.58,-344.48 131.75,-238.33 200,-183 201.58,-181.72 203.23,-180.51 204.93,-179.36"/>
<polygon fill="#63b8ff" stroke="#63b8ff" points="206.98,-182.21 213.84,-174.14 203.44,-176.17 206.98,-182.21"/>
</a>
</g>
</g>
<!-- Node14 -->
<g id="Node000014" class="node">
<title>Node14</title>
<g id="a_Node000014"><a xlink:href="classtmc9660_1_1TMC9660Bootloader.html#a607f74c5ea8eda582b336df9f206b9f9" target="_top" xlink:title="Get Git version control information.">
<polygon fill="white" stroke="#666666" points="364,-126 200,-126 200,-96 364,-96 364,-126"/>
<text text-anchor="start" x="208" y="-114" font-family="Helvetica,sans-Serif" font-size="10.00">tmc9660::TMC9660Bootloader</text>
<text text-anchor="middle" x="282" y="-103" font-family="Helvetica,sans-Serif" font-size="10.00">::getGitInfo</text>
</a>
</g>
</g>
<!-- Node1&#45;&gt;Node14 -->
<g id="edge18_Node000001_Node000014" class="edge">
<title>Node1&#45;&gt;Node14</title>
<g id="a_edge18_Node000001_Node000014"><a xlink:title=" ">
<path fill="none" stroke="#63b8ff" d="M85.21,-383.87C92.58,-338.89 120.53,-204.82 200,-135 201.33,-133.84 202.71,-132.73 204.13,-131.67"/>
<polygon fill="#63b8ff" stroke="#63b8ff" points="206.18,-134.52 212.75,-126.2 202.43,-128.61 206.18,-134.52"/>
</a>
</g>
</g>
<!-- Node16 -->
<g id="Node000016" class="node">
<title>Node16</title>
<g id="a_Node000016"><a xlink:href="classtmc9660_1_1TMC9660Bootloader.html#a137085a76f54e74f3247eb255bf4c4a7" target="_top" xlink:title="Get number of I2C memory partitions.">
<polygon fill="white" stroke="#666666" points="364,-414 200,-414 200,-384 364,-384 364,-414"/>
<text text-anchor="start" x="208" y="-402" font-family="Helvetica,sans-Serif" font-size="10.00">tmc9660::TMC9660Bootloader</text>
<text text-anchor="middle" x="282" y="-391" font-family="Helvetica,sans-Serif" font-size="10.00">::getI2cMemPartitions</text>
</a>
</g>
</g>
<!-- Node1&#45;&gt;Node16 -->
<g id="edge20_Node000001_Node000016" class="edge">
<title>Node1&#45;&gt;Node16</title>
<g id="a_edge20_Node000001_Node000016"><a xlink:title=" ">
<path fill="none" stroke="#63b8ff" d="M164.11,-399C172.46,-399 180.99,-399 189.44,-399"/>
<polygon fill="#63b8ff" stroke="#63b8ff" points="189.7,-402.5 199.7,-399 189.7,-395.5 189.7,-402.5"/>
</a>
</g>
</g>
<!-- Node17 -->
<g id="Node000017" class="node">
<title>Node17</title>
<g id="a_Node000017"><a xlink:href="classtmc9660_1_1TMC9660Bootloader.html#af42a427c8322be97ec39c69ead8039d7" target="_top" xlink:title="Get I2C memory size.">
<polygon fill="white" stroke="#666666" points="364,-366 200,-366 200,-336 364,-336 364,-366"/>
<text text-anchor="start" x="208" y="-354" font-family="Helvetica,sans-Serif" font-size="10.00">tmc9660::TMC9660Bootloader</text>
<text text-anchor="middle" x="282" y="-343" font-family="Helvetica,sans-Serif" font-size="10.00">::getI2cMemSize</text>
</a>
</g>
</g>
<!-- Node1&#45;&gt;Node17 -->
<g id="edge22_Node000001_Node000017" class="edge">
<title>Node1&#45;&gt;Node17</title>
<g id="a_edge22_Node000001_Node000017"><a xlink:title=" ">
<path fill="none" stroke="#63b8ff" d="M145.11,-383.94C165.47,-379.01 188.26,-373.48 209.28,-368.39"/>
<polygon fill="#63b8ff" stroke="#63b8ff" points="210.22,-371.76 219.12,-366 208.57,-364.96 210.22,-371.76"/>
</a>
</g>
</g>
<!-- Node18 -->
<g id="Node000018" class="node">
<title>Node18</title>
<g id="a_Node000018"><a xlink:href="classtmc9660_1_1TMC9660Bootloader.html#a43c56573c69c5fa0dc08c8b9fb1930a3" target="_top" xlink:title="Get OTP memory page size.">
<polygon fill="white" stroke="#666666" points="364,-318 200,-318 200,-288 364,-288 364,-318"/>
<text text-anchor="start" x="208" y="-306" font-family="Helvetica,sans-Serif" font-size="10.00">tmc9660::TMC9660Bootloader</text>
<text text-anchor="middle" x="282" y="-295" font-family="Helvetica,sans-Serif" font-size="10.00">::getOtpMemSize</text>
</a>
</g>
</g>
<!-- Node1&#45;&gt;Node18 -->
<g id="edge24_Node000001_Node000018" class="edge">
<title>Node1&#45;&gt;Node18</title>
<g id="a_edge24_Node000001_Node000018"><a xlink:title=" ">
<path fill="none" stroke="#63b8ff" d="M103.63,-383.96C126.31,-368.01 164.28,-342.94 200,-327 204.37,-325.05 208.95,-323.2 213.6,-321.47"/>
<polygon fill="#63b8ff" stroke="#63b8ff" points="214.97,-324.7 223.23,-318.07 212.64,-318.1 214.97,-324.7"/>
</a>
</g>
</g>
<!-- Node19 -->
<g id="Node000019" class="node">
<title>Node19</title>
<g id="a_Node000019"><a xlink:href="classtmc9660_1_1TMC9660Bootloader.html#af8979ab0bad2ff875aef224d6d87928c" target="_top" xlink:title="Get partition version information.">
<polygon fill="white" stroke="#666666" points="364,-78 200,-78 200,-48 364,-48 364,-78"/>
<text text-anchor="start" x="208" y="-66" font-family="Helvetica,sans-Serif" font-size="10.00">tmc9660::TMC9660Bootloader</text>
<text text-anchor="middle" x="282" y="-55" font-family="Helvetica,sans-Serif" font-size="10.00">::getPartitionVersion</text>
</a>
</g>
</g>
<!-- Node1&#45;&gt;Node19 -->
<g id="edge26_Node000001_Node000019" class="edge">
<title>Node1&#45;&gt;Node19</title>
<g id="a_edge26_Node000001_Node000019"><a xlink:title=" ">
<path fill="none" stroke="#63b8ff" d="M84.07,-383.73C88.42,-333.47 109.21,-171.59 200,-87 201.14,-85.94 202.33,-84.92 203.55,-83.95"/>
<polygon fill="#63b8ff" stroke="#63b8ff" points="205.79,-86.66 212.14,-78.17 201.89,-80.85 205.79,-86.66"/>
</a>
</g>
</g>
<!-- Node21 -->
<g id="Node000021" class="node">
<title>Node21</title>
<g id="a_Node000021"><a xlink:href="classtmc9660_1_1TMC9660Bootloader.html#afde9fbc6c602d561836fd0f4bf3ab36c" target="_top" xlink:title="Get number of SPI memory partitions.">
<polygon fill="white" stroke="#666666" points="364,-270 200,-270 200,-240 364,-240 364,-270"/>
<text text-anchor="start" x="208" y="-258" font-family="Helvetica,sans-Serif" font-size="10.00">tmc9660::TMC9660Bootloader</text>
<text text-anchor="middle" x="282" y="-247" font-family="Helvetica,sans-Serif" font-size="10.00">::getSpiMemPartitions</text>
</a>
</g>
</g>
<!-- Node1&#45;&gt;Node21 -->
<g id="edge28_Node000001_Node000021" class="edge">
<title>Node1&#45;&gt;Node21</title>
<g id="a_edge28_Node000001_Node000021"><a xlink:title=" ">
<path fill="none" stroke="#63b8ff" d="M93.76,-383.67C112.46,-358.19 153.42,-307.12 200,-279 202.83,-277.29 205.78,-275.7 208.82,-274.22"/>
<polygon fill="#63b8ff" stroke="#63b8ff" points="210.42,-277.34 218.14,-270.09 207.58,-270.94 210.42,-277.34"/>
</a>
</g>
</g>
<!-- Node22 -->
<g id="Node000022" class="node">
<title>Node22</title>
<g id="a_Node000022"><a xlink:href="classtmc9660_1_1TMC9660Bootloader.html#af918f4f48fda8ab71a6b48f506a40ea7" target="_top" xlink:title="Get SPI memory size.">
<polygon fill="white" stroke="#666666" points="364,-222 200,-222 200,-192 364,-192 364,-222"/>
<text text-anchor="start" x="208" y="-210" font-family="Helvetica,sans-Serif" font-size="10.00">tmc9660::TMC9660Bootloader</text>
<text text-anchor="middle" x="282" y="-199" font-family="Helvetica,sans-Serif" font-size="10.00">::getSpiMemSize</text>
</a>
</g>
</g>
<!-- Node1&#45;&gt;Node22 -->
<g id="edge30_Node000001_Node000022" class="edge">
<title>Node1&#45;&gt;Node22</title>
<g id="a_edge30_Node000001_Node000022"><a xlink:title=" ">
<path fill="none" stroke="#63b8ff" d="M89.29,-383.88C103.76,-350.95 142.65,-272.4 200,-231 202.08,-229.5 204.26,-228.09 206.5,-226.77"/>
<polygon fill="#63b8ff" stroke="#63b8ff" points="208.22,-229.82 215.47,-222.09 204.99,-223.61 208.22,-229.82"/>
</a>
</g>
</g>
<!-- Node23 -->
<g id="Node000023" class="node">
<title>Node23</title>
<g id="a_Node000023"><a xlink:href="classtmc9660_1_1TMC9660Bootloader.html#ab0140b4e1daf8e95c23060128fd87eb0" target="_top" xlink:title="Select the target memory bank for subsequent operations.">
<polygon fill="white" stroke="#666666" points="364,-30 200,-30 200,0 364,0 364,-30"/>
<text text-anchor="start" x="208" y="-18" font-family="Helvetica,sans-Serif" font-size="10.00">tmc9660::TMC9660Bootloader</text>
<text text-anchor="middle" x="282" y="-7" font-family="Helvetica,sans-Serif" font-size="10.00">::setBank</text>
</a>
</g>
</g>
<!-- Node1&#45;&gt;Node23 -->
<g id="edge32_Node000001_Node000023" class="edge">
<title>Node1&#45;&gt;Node23</title>
<g id="a_edge32_Node000001_Node000023"><a xlink:title=" ">
<path fill="none" stroke="#63b8ff" d="M83.2,-383.79C84.75,-328.86 97.61,-138.74 200,-39 201.08,-37.94 202.21,-36.94 203.38,-35.97"/>
<polygon fill="#63b8ff" stroke="#63b8ff" points="205.4,-38.82 211.58,-30.22 201.39,-33.09 205.4,-38.82"/>
</a>
</g>
</g>
<!-- Node4 -->
<g id="Node000004" class="node">
<title>Node4</title>
<g id="a_Node000004"><a xlink:href="structtmc9660_1_1BootloaderVersion.html#ac814daf933906fe94877a110e4c3ff46" target="_top" xlink:title="Parse from 32&#45;bit value (major in upper 16 bits, minor in lower 16 bits)">
<polygon fill="white" stroke="#666666" points="559.5,-750 404.5,-750 404.5,-720 559.5,-720 559.5,-750"/>
<text text-anchor="start" x="412.5" y="-738" font-family="Helvetica,sans-Serif" font-size="10.00">tmc9660::BootloaderVersion</text>
<text text-anchor="middle" x="482" y="-727" font-family="Helvetica,sans-Serif" font-size="10.00">::fromValue</text>
</a>
</g>
</g>
<!-- Node3&#45;&gt;Node4 -->
<g id="edge3_Node000003_Node000004" class="edge">
<title>Node3&#45;&gt;Node4</title>
<g id="a_edge3_Node000003_Node000004"><a xlink:title=" ">
<path fill="none" stroke="#63b8ff" d="M364.11,-735C374.12,-735 384.38,-735 394.47,-735"/>
<polygon fill="#63b8ff" stroke="#63b8ff" points="394.49,-738.5 404.49,-735 394.49,-731.5 394.49,-738.5"/>
</a>
</g>
</g>
<!-- Node6 -->
<g id="Node000006" class="node">
<title>Node6</title>
<g id="a_Node000006"><a xlink:href="classtmc9660_1_1TMC9660Bootloader.html#a07e0d693245a15145744cad3016c8037" target="_top" xlink:title="Get bootloader information.">
<polygon fill="white" stroke="#666666" points="564,-462 400,-462 400,-432 564,-432 564,-462"/>
<text text-anchor="start" x="408" y="-450" font-family="Helvetica,sans-Serif" font-size="10.00">tmc9660::TMC9660Bootloader</text>
<text text-anchor="middle" x="482" y="-439" font-family="Helvetica,sans-Serif" font-size="10.00">::getInfo</text>
</a>
</g>
</g>
<!-- Node5&#45;&gt;Node6 -->
<g id="edge5_Node000005_Node000006" class="edge">
<title>Node5&#45;&gt;Node6</title>
<g id="a_edge5_Node000005_Node000006"><a xlink:title=" ">
<path fill="none" stroke="#63b8ff" d="M350.16,-671.86C355.1,-669.35 359.78,-666.42 364,-663 427.18,-611.78 461.16,-517 474.38,-471.99"/>
<polygon fill="#63b8ff" stroke="#63b8ff" points="477.8,-472.74 477.16,-462.17 471.07,-470.84 477.8,-472.74"/>
</a>
</g>
</g>
<!-- Node7&#45;&gt;Node6 -->
<g id="edge7_Node000007_Node000006" class="edge">
<title>Node7&#45;&gt;Node6</title>
<g id="a_edge7_Node000007_Node000006"><a xlink:title=" ">
<path fill="none" stroke="#63b8ff" d="M348.53,-623.91C354,-621.38 359.24,-618.43 364,-615 416.42,-577.16 453.42,-508.28 470.44,-471.57"/>
<polygon fill="#63b8ff" stroke="#63b8ff" points="473.78,-472.67 474.71,-462.12 467.4,-469.79 473.78,-472.67"/>
</a>
</g>
</g>
<!-- Node8&#45;&gt;Node6 -->
<g id="edge9_Node000008_Node000006" class="edge">
<title>Node8&#45;&gt;Node6</title>
<g id="a_edge9_Node000008_Node000006"><a xlink:title=" ">
<path fill="none" stroke="#63b8ff" d="M345.86,-575.91C352.18,-573.36 358.35,-570.41 364,-567 406.03,-541.63 443.49,-497.57 464.14,-470.48"/>
<polygon fill="#63b8ff" stroke="#63b8ff" points="467.05,-472.43 470.24,-462.33 461.44,-468.24 467.05,-472.43"/>
</a>
</g>
</g>
<!-- Node9&#45;&gt;Node6 -->
<g id="edge11_Node000009_Node000006" class="edge">
<title>Node9&#45;&gt;Node6</title>
<g id="a_edge11_Node000009_Node000006"><a xlink:title=" ">
<path fill="none" stroke="#63b8ff" d="M340.77,-527.93C348.69,-525.27 356.63,-522.29 364,-519 395.67,-504.86 429.11,-483.55 452.1,-467.78"/>
<polygon fill="#63b8ff" stroke="#63b8ff" points="454.15,-470.62 460.37,-462.04 450.16,-464.87 454.15,-470.62"/>
</a>
</g>
</g>
<!-- Node10&#45;&gt;Node6 -->
<g id="edge13_Node000010_Node000006" class="edge">
<title>Node10&#45;&gt;Node6</title>
<g id="a_edge13_Node000010_Node000006"><a xlink:title=" ">
<path fill="none" stroke="#63b8ff" d="M345.11,-479.94C365.47,-475.01 388.26,-469.48 409.28,-464.39"/>
<polygon fill="#63b8ff" stroke="#63b8ff" points="410.22,-467.76 419.12,-462 408.57,-460.96 410.22,-467.76"/>
</a>
</g>
</g>
<!-- Node11&#45;&gt;Node6 -->
<g id="edge15_Node000011_Node000006" class="edge">
<title>Node11&#45;&gt;Node6</title>
<g id="a_edge15_Node000011_Node000006"><a xlink:title=" ">
<path fill="none" stroke="#63b8ff" d="M364.11,-447C372.46,-447 380.99,-447 389.44,-447"/>
<polygon fill="#63b8ff" stroke="#63b8ff" points="389.7,-450.5 399.7,-447 389.7,-443.5 389.7,-450.5"/>
</a>
</g>
</g>
<!-- Node13 -->
<g id="Node000013" class="node">
<title>Node13</title>
<g id="a_Node000013"><a xlink:href="structtmc9660_1_1BootloaderFeatures.html#a0b979b0c98d4d866200a2e33a7634041" target="_top" xlink:title="Parse from 32&#45;bit value.">
<polygon fill="white" stroke="#666666" points="562.5,-174 401.5,-174 401.5,-144 562.5,-144 562.5,-174"/>
<text text-anchor="start" x="409.5" y="-162" font-family="Helvetica,sans-Serif" font-size="10.00">tmc9660::BootloaderFeatures</text>
<text text-anchor="middle" x="482" y="-151" font-family="Helvetica,sans-Serif" font-size="10.00">::fromValue</text>
</a>
</g>
</g>
<!-- Node12&#45;&gt;Node13 -->
<g id="edge17_Node000012_Node000013" class="edge">
<title>Node12&#45;&gt;Node13</title>
<g id="a_edge17_Node000012_Node000013"><a xlink:title=" ">
<path fill="none" stroke="#63b8ff" d="M364.11,-159C373.03,-159 382.15,-159 391.17,-159"/>
<polygon fill="#63b8ff" stroke="#63b8ff" points="391.3,-162.5 401.3,-159 391.3,-155.5 391.3,-162.5"/>
</a>
</g>
</g>
<!-- Node15 -->
<g id="Node000015" class="node">
<title>Node15</title>
<g id="a_Node000015"><a xlink:href="structtmc9660_1_1GitInfo.html#a329188344bd7284b2c94824385547e01" target="_top" xlink:title="Parse from 32&#45;bit value.">
<polygon fill="white" stroke="#666666" points="559.5,-120.5 404.5,-120.5 404.5,-101.5 559.5,-101.5 559.5,-120.5"/>
<text text-anchor="middle" x="482" y="-108.5" font-family="Helvetica,sans-Serif" font-size="10.00">tmc9660::GitInfo::fromValue</text>
</a>
</g>
</g>
<!-- Node14&#45;&gt;Node15 -->
<g id="edge19_Node000014_Node000015" class="edge">
<title>Node14&#45;&gt;Node15</title>
<g id="a_edge19_Node000014_Node000015"><a xlink:title=" ">
<path fill="none" stroke="#63b8ff" d="M364.11,-111C374.12,-111 384.38,-111 394.47,-111"/>
<polygon fill="#63b8ff" stroke="#63b8ff" points="394.49,-114.5 404.49,-111 394.49,-107.5 394.49,-114.5"/>
</a>
</g>
</g>
<!-- Node16&#45;&gt;Node6 -->
<g id="edge21_Node000016_Node000006" class="edge">
<title>Node16&#45;&gt;Node6</title>
<g id="a_edge21_Node000016_Node000006"><a xlink:title=" ">
<path fill="none" stroke="#63b8ff" d="M345.11,-414.06C365.47,-418.99 388.26,-424.52 409.28,-429.61"/>
<polygon fill="#63b8ff" stroke="#63b8ff" points="408.57,-433.04 419.12,-432 410.22,-426.24 408.57,-433.04"/>
</a>
</g>
</g>
<!-- Node17&#45;&gt;Node6 -->
<g id="edge23_Node000017_Node000006" class="edge">
<title>Node17&#45;&gt;Node6</title>
<g id="a_edge23_Node000017_Node000006"><a xlink:title=" ">
<path fill="none" stroke="#63b8ff" d="M340.77,-366.07C348.69,-368.73 356.63,-371.71 364,-375 395.67,-389.14 429.11,-410.45 452.1,-426.22"/>
<polygon fill="#63b8ff" stroke="#63b8ff" points="450.16,-429.13 460.37,-431.96 454.15,-423.38 450.16,-429.13"/>
</a>
</g>
</g>
<!-- Node18&#45;&gt;Node6 -->
<g id="edge25_Node000018_Node000006" class="edge">
<title>Node18&#45;&gt;Node6</title>
<g id="a_edge25_Node000018_Node000006"><a xlink:title=" ">
<path fill="none" stroke="#63b8ff" d="M345.86,-318.09C352.18,-320.64 358.35,-323.59 364,-327 406.03,-352.37 443.49,-396.43 464.14,-423.52"/>
<polygon fill="#63b8ff" stroke="#63b8ff" points="461.44,-425.76 470.24,-431.67 467.05,-421.57 461.44,-425.76"/>
</a>
</g>
</g>
<!-- Node20 -->
<g id="Node000020" class="node">
<title>Node20</title>
<g id="a_Node000020"><a xlink:href="structtmc9660_1_1PartitionVersion.html#adae4ea0c437e8f3d6031c36f141aa170" target="_top" xlink:title="Parse from 32&#45;bit value.">
<polygon fill="white" stroke="#666666" points="553,-78 411,-78 411,-48 553,-48 553,-78"/>
<text text-anchor="start" x="419" y="-66" font-family="Helvetica,sans-Serif" font-size="10.00">tmc9660::PartitionVersion</text>
<text text-anchor="middle" x="482" y="-55" font-family="Helvetica,sans-Serif" font-size="10.00">::fromValue</text>
</a>
</g>
</g>
<!-- Node19&#45;&gt;Node20 -->
<g id="edge27_Node000019_Node000020" class="edge">
<title>Node19&#45;&gt;Node20</title>
<g id="a_edge27_Node000019_Node000020"><a xlink:title=" ">
<path fill="none" stroke="#63b8ff" d="M364.11,-63C376.2,-63 388.67,-63 400.75,-63"/>
<polygon fill="#63b8ff" stroke="#63b8ff" points="400.79,-66.5 410.79,-63 400.79,-59.5 400.79,-66.5"/>
</a>
</g>
</g>
<!-- Node21&#45;&gt;Node6 -->
<g id="edge29_Node000021_Node000006" class="edge">
<title>Node21&#45;&gt;Node6</title>
<g id="a_edge29_Node000021_Node000006"><a xlink:title=" ">
<path fill="none" stroke="#63b8ff" d="M348.53,-270.09C354,-272.62 359.24,-275.57 364,-279 416.42,-316.84 453.42,-385.72 470.44,-422.43"/>
<polygon fill="#63b8ff" stroke="#63b8ff" points="467.4,-424.21 474.71,-431.88 473.78,-421.33 467.4,-424.21"/>
</a>
</g>
</g>
<!-- Node22&#45;&gt;Node6 -->
<g id="edge31_Node000022_Node000006" class="edge">
<title>Node22&#45;&gt;Node6</title>
<g id="a_edge31_Node000022_Node000006"><a xlink:title=" ">
<path fill="none" stroke="#63b8ff" d="M350.16,-222.14C355.1,-224.65 359.78,-227.58 364,-231 427.18,-282.22 461.16,-377 474.38,-422.01"/>
<polygon fill="#63b8ff" stroke="#63b8ff" points="471.07,-423.16 477.16,-431.83 477.8,-421.26 471.07,-423.16"/>
</a>
</g>
</g>
</g>
</svg>
