<?xml version="1.0" encoding="UTF-8" standalone="no"?>
<!DOCTYPE svg PUBLIC "-//W3C//DTD SVG 1.1//EN"
 "http://www.w3.org/Graphics/SVG/1.1/DTD/svg11.dtd">
<!-- Generated by graphviz version 2.43.0 (0)
 -->
<!-- Title: test_stepper_error_handling Pages: 1 -->
<svg width="397pt" height="38pt"
 viewBox="0.00 0.00 397.00 38.00" xmlns="http://www.w3.org/2000/svg" xmlns:xlink="http://www.w3.org/1999/xlink">
<g id="graph0" class="graph" transform="scale(1 1) rotate(0) translate(4 34)">
<title>test_stepper_error_handling</title>
<!-- Node1 -->
<g id="Node000001" class="node">
<title>Node1</title>
<g id="a_Node000001"><a xlink:title=" ">
<polygon fill="#999999" stroke="#666666" points="106,-30 0,-30 0,0 106,0 106,-30"/>
<text text-anchor="start" x="8" y="-18" font-family="Helvetica,sans-Serif" font-size="10.00">test_stepper_error</text>
<text text-anchor="middle" x="53" y="-7" font-family="Helvetica,sans-Serif" font-size="10.00">_handling</text>
</a>
</g>
</g>
<!-- Node2 -->
<g id="Node000002" class="node">
<title>Node2</title>
<g id="a_Node000002"><a xlink:href="BootloaderComprehensiveTest_8cpp.html#a193b30ef3686c5852a972b9995d3ee6e" target="_top" xlink:title=" ">
<polygon fill="white" stroke="#666666" points="247,-24.5 142,-24.5 142,-5.5 247,-5.5 247,-24.5"/>
<text text-anchor="middle" x="194.5" y="-12.5" font-family="Helvetica,sans-Serif" font-size="10.00">create_test_driver</text>
</a>
</g>
</g>
<!-- Node1&#45;&gt;Node2 -->
<g id="edge1_Node000001_Node000002" class="edge">
<title>Node1&#45;&gt;Node2</title>
<g id="a_edge1_Node000001_Node000002"><a xlink:title=" ">
<path fill="none" stroke="#63b8ff" d="M106.34,-15C114.59,-15 123.18,-15 131.61,-15"/>
<polygon fill="#63b8ff" stroke="#63b8ff" points="131.79,-18.5 141.79,-15 131.79,-11.5 131.79,-18.5"/>
</a>
</g>
</g>
<!-- Node3 -->
<g id="Node000003" class="node">
<title>Node3</title>
<g id="a_Node000003"><a xlink:href="Esp32TMC9660Bus_8hpp.html#a6a65828a097e44c42edb1c62d89ee262" target="_top" xlink:title="Create and initialize SPI communication interface.">
<polygon fill="white" stroke="#666666" points="389,-24.5 283,-24.5 283,-5.5 389,-5.5 389,-24.5"/>
<text text-anchor="middle" x="336" y="-12.5" font-family="Helvetica,sans-Serif" font-size="10.00">createSPIInterface</text>
</a>
</g>
</g>
<!-- Node2&#45;&gt;Node3 -->
<g id="edge2_Node000002_Node000003" class="edge">
<title>Node2&#45;&gt;Node3</title>
<g id="a_edge2_Node000002_Node000003"><a xlink:title=" ">
<path fill="none" stroke="#63b8ff" d="M247.05,-15C255.33,-15 263.97,-15 272.47,-15"/>
<polygon fill="#63b8ff" stroke="#63b8ff" points="272.73,-18.5 282.73,-15 272.73,-11.5 272.73,-18.5"/>
</a>
</g>
</g>
</g>
</svg>
