<?xml version="1.0" encoding="UTF-8" standalone="no"?>
<!DOCTYPE svg PUBLIC "-//W3C//DTD SVG 1.1//EN"
 "http://www.w3.org/Graphics/SVG/1.1/DTD/svg11.dtd">
<!-- Generated by graphviz version 2.43.0 (0)
 -->
<!-- Title: app_main Pages: 1 -->
<svg width="675pt" height="962pt"
 viewBox="0.00 0.00 675.00 961.50" xmlns="http://www.w3.org/2000/svg" xmlns:xlink="http://www.w3.org/1999/xlink">
<g id="graph0" class="graph" transform="scale(1 1) rotate(0) translate(4 957.5)">
<title>app_main</title>
<!-- Node1 -->
<g id="Node000001" class="node">
<title>Node1</title>
<g id="a_Node000001"><a xlink:title=" ">
<polygon fill="#999999" stroke="#666666" points="65,-560 0,-560 0,-541 65,-541 65,-560"/>
<text text-anchor="middle" x="32.5" y="-548" font-family="Helvetica,sans-Serif" font-size="10.00">app_main</text>
</a>
</g>
</g>
<!-- Node2 -->
<g id="Node000002" class="node">
<title>Node2</title>
<g id="a_Node000002"><a xlink:href="TestFramework_8h.html#a7bb80345e5681c19686df292fa897daf" target="_top" xlink:title="Flip the test progression indicator to show next test.">
<polygon fill="white" stroke="#666666" points="229,-953.5 126,-953.5 126,-923.5 229,-923.5 229,-953.5"/>
<text text-anchor="start" x="134" y="-941.5" font-family="Helvetica,sans-Serif" font-size="10.00">flip_test_progress</text>
<text text-anchor="middle" x="177.5" y="-930.5" font-family="Helvetica,sans-Serif" font-size="10.00">_indicator</text>
</a>
</g>
</g>
<!-- Node1&#45;&gt;Node2 -->
<g id="edge1_Node000001_Node000002" class="edge">
<title>Node1&#45;&gt;Node2</title>
<g id="a_edge1_Node000001_Node000002"><a xlink:title=" ">
<path fill="none" stroke="#63b8ff" d="M33.99,-560.29C36.78,-612.68 52.41,-859.45 101,-914.5 105.3,-919.37 110.59,-923.26 116.35,-926.37"/>
<polygon fill="#63b8ff" stroke="#63b8ff" points="115.16,-929.68 125.71,-930.63 118.06,-923.31 115.16,-929.68"/>
</a>
</g>
</g>
<!-- Node3 -->
<g id="Node000003" class="node">
<title>Node3</title>
<g id="a_Node000003"><a xlink:href="TestFramework_8h.html#a200bb35a3a48c625b9cb8d2511d6bd87" target="_top" xlink:title="Print standardized test summary.">
<polygon fill="white" stroke="#666666" points="229.5,-905.5 125.5,-905.5 125.5,-875.5 229.5,-875.5 229.5,-905.5"/>
<text text-anchor="start" x="133.5" y="-893.5" font-family="Helvetica,sans-Serif" font-size="10.00">print_test_section</text>
<text text-anchor="middle" x="177.5" y="-882.5" font-family="Helvetica,sans-Serif" font-size="10.00">_status</text>
</a>
</g>
</g>
<!-- Node1&#45;&gt;Node3 -->
<g id="edge2_Node000001_Node000003" class="edge">
<title>Node1&#45;&gt;Node3</title>
<g id="a_edge2_Node000001_Node000003"><a xlink:title=" ">
<path fill="none" stroke="#63b8ff" d="M34.28,-560.25C38.32,-608.29 58.31,-819.44 101,-866.5 105.31,-871.25 110.55,-875.06 116.24,-878.12"/>
<polygon fill="#63b8ff" stroke="#63b8ff" points="114.93,-881.37 125.48,-882.35 117.84,-875.01 114.93,-881.37"/>
</a>
</g>
</g>
<!-- Node6 -->
<g id="Node000006" class="node">
<title>Node6</title>
<g id="a_Node000006"><a xlink:href="TestFramework_8h.html#ab7e4c076755ecdf2ad6212cb8f6578ab" target="_top" xlink:title="Print standardized test summary.">
<polygon fill="white" stroke="#666666" points="235,-857 120,-857 120,-838 235,-838 235,-857"/>
<text text-anchor="middle" x="177.5" y="-845" font-family="Helvetica,sans-Serif" font-size="10.00">print_test_summary</text>
</a>
</g>
</g>
<!-- Node1&#45;&gt;Node6 -->
<g id="edge5_Node000001_Node000006" class="edge">
<title>Node1&#45;&gt;Node6</title>
<g id="a_edge5_Node000001_Node000006"><a xlink:title=" ">
<path fill="none" stroke="#63b8ff" d="M34.53,-560.29C39.43,-604.96 61.74,-788.91 101,-828.5 103.86,-831.39 107.09,-833.86 110.57,-835.97"/>
<polygon fill="#63b8ff" stroke="#63b8ff" points="109.13,-839.16 119.64,-840.52 112.27,-832.91 109.13,-839.16"/>
</a>
</g>
</g>
<!-- Node7 -->
<g id="Node000007" class="node">
<title>Node7</title>
<g id="a_Node000007"><a xlink:href="BLDCComprehensiveTest_8cpp.html#ad7ae15abc5e20db75ba442ab9f7a260d" target="_top" xlink:title=" ">
<polygon fill="white" stroke="#666666" points="241.5,-723.5 113.5,-723.5 113.5,-693.5 241.5,-693.5 241.5,-723.5"/>
<text text-anchor="start" x="121.5" y="-711.5" font-family="Helvetica,sans-Serif" font-size="10.00">test_bldc_abn_encoder</text>
<text text-anchor="middle" x="177.5" y="-700.5" font-family="Helvetica,sans-Serif" font-size="10.00">_configuration</text>
</a>
</g>
</g>
<!-- Node1&#45;&gt;Node7 -->
<g id="edge7_Node000001_Node000007" class="edge">
<title>Node1&#45;&gt;Node7</title>
<g id="a_edge7_Node000001_Node000007"><a xlink:title=" ">
<path fill="none" stroke="#63b8ff" d="M35.63,-560.21C41.52,-584.77 60.36,-649.86 101,-684.5 102.37,-685.67 103.79,-686.77 105.26,-687.83"/>
<polygon fill="#63b8ff" stroke="#63b8ff" points="103.8,-691.04 114.15,-693.31 107.47,-685.08 103.8,-691.04"/>
</a>
</g>
</g>
<!-- Node10 -->
<g id="Node000010" class="node">
<title>Node10</title>
<g id="a_Node000010"><a xlink:href="BLDCComprehensiveTest_8cpp.html#a4b5b349d3b17cecc8cc1ba9d88d9c784" target="_top" xlink:title=" ">
<polygon fill="white" stroke="#666666" points="237,-675.5 118,-675.5 118,-645.5 237,-645.5 237,-675.5"/>
<text text-anchor="start" x="126" y="-663.5" font-family="Helvetica,sans-Serif" font-size="10.00">test_bldc_bootloader</text>
<text text-anchor="middle" x="177.5" y="-652.5" font-family="Helvetica,sans-Serif" font-size="10.00">_initialization</text>
</a>
</g>
</g>
<!-- Node1&#45;&gt;Node10 -->
<g id="edge10_Node000001_Node000010" class="edge">
<title>Node1&#45;&gt;Node10</title>
<g id="a_edge10_Node000001_Node000010"><a xlink:title=" ">
<path fill="none" stroke="#63b8ff" d="M38.43,-560.04C48.06,-577.74 71.06,-615.73 101,-636.5 103.52,-638.25 106.17,-639.87 108.91,-641.38"/>
<polygon fill="#63b8ff" stroke="#63b8ff" points="107.41,-644.55 117.93,-645.83 110.51,-638.27 107.41,-644.55"/>
</a>
</g>
</g>
<!-- Node11 -->
<g id="Node000011" class="node">
<title>Node11</title>
<g id="a_Node000011"><a xlink:href="BLDCComprehensiveTest_8cpp.html#a0ac16e0564484242a36b478d182130f0" target="_top" xlink:title=" ">
<polygon fill="white" stroke="#666666" points="243,-627.5 112,-627.5 112,-597.5 243,-597.5 243,-627.5"/>
<text text-anchor="start" x="120" y="-615.5" font-family="Helvetica,sans-Serif" font-size="10.00">test_bldc_commutation</text>
<text text-anchor="middle" x="177.5" y="-604.5" font-family="Helvetica,sans-Serif" font-size="10.00">_modes</text>
</a>
</g>
</g>
<!-- Node1&#45;&gt;Node11 -->
<g id="edge12_Node000001_Node000011" class="edge">
<title>Node1&#45;&gt;Node11</title>
<g id="a_edge12_Node000001_Node000011"><a xlink:title=" ">
<path fill="none" stroke="#63b8ff" d="M48.32,-560.02C61.71,-568.32 82.13,-580.29 101,-588.5 105.42,-590.42 110.04,-592.27 114.73,-594.02"/>
<polygon fill="#63b8ff" stroke="#63b8ff" points="113.81,-597.41 124.4,-597.49 116.17,-590.82 113.81,-597.41"/>
</a>
</g>
</g>
<!-- Node12 -->
<g id="Node000012" class="node">
<title>Node12</title>
<g id="a_Node000012"><a xlink:href="BLDCComprehensiveTest_8cpp.html#adc19f23b7dd14064625e6d8defd93ea2" target="_top" xlink:title=" ">
<polygon fill="white" stroke="#666666" points="247.5,-579 107.5,-579 107.5,-560 247.5,-560 247.5,-579"/>
<text text-anchor="middle" x="177.5" y="-567" font-family="Helvetica,sans-Serif" font-size="10.00">test_bldc_current_control</text>
</a>
</g>
</g>
<!-- Node1&#45;&gt;Node12 -->
<g id="edge14_Node000001_Node000012" class="edge">
<title>Node1&#45;&gt;Node12</title>
<g id="a_edge14_Node000001_Node000012"><a xlink:title=" ">
<path fill="none" stroke="#63b8ff" d="M65.24,-554.72C74.91,-556 86.01,-557.48 97.36,-558.99"/>
<polygon fill="#63b8ff" stroke="#63b8ff" points="97.01,-562.47 107.38,-560.32 97.93,-555.53 97.01,-562.47"/>
</a>
</g>
</g>
<!-- Node13 -->
<g id="Node000013" class="node">
<title>Node13</title>
<g id="a_Node000013"><a xlink:href="BLDCComprehensiveTest_8cpp.html#ae1238898d0555ec18f2340a1580fa8b7" target="_top" xlink:title=" ">
<polygon fill="white" stroke="#666666" points="244,-542 111,-542 111,-523 244,-523 244,-542"/>
<text text-anchor="middle" x="177.5" y="-530" font-family="Helvetica,sans-Serif" font-size="10.00">test_bldc_driver_enable</text>
</a>
</g>
</g>
<!-- Node1&#45;&gt;Node13 -->
<g id="edge16_Node000001_Node000013" class="edge">
<title>Node1&#45;&gt;Node13</title>
<g id="a_edge16_Node000001_Node000013"><a xlink:title=" ">
<path fill="none" stroke="#63b8ff" d="M65.24,-546.51C75.88,-545.16 88.26,-543.61 100.8,-542.03"/>
<polygon fill="#63b8ff" stroke="#63b8ff" points="101.39,-545.48 110.87,-540.76 100.51,-538.54 101.39,-545.48"/>
</a>
</g>
</g>
<!-- Node14 -->
<g id="Node000014" class="node">
<title>Node14</title>
<g id="a_Node000014"><a xlink:href="BLDCComprehensiveTest_8cpp.html#aeb7bee44f9c06780ebb3f63bab1c1513" target="_top" xlink:title=" ">
<polygon fill="white" stroke="#666666" points="239,-505 116,-505 116,-486 239,-486 239,-505"/>
<text text-anchor="middle" x="177.5" y="-493" font-family="Helvetica,sans-Serif" font-size="10.00">test_bldc_edge_cases</text>
</a>
</g>
</g>
<!-- Node1&#45;&gt;Node14 -->
<g id="edge18_Node000001_Node000014" class="edge">
<title>Node1&#45;&gt;Node14</title>
<g id="a_edge18_Node000001_Node000014"><a xlink:title=" ">
<path fill="none" stroke="#63b8ff" d="M48.81,-540.94C62.17,-532.95 82.29,-521.72 101,-514.5 107.35,-512.05 114.13,-509.83 120.92,-507.84"/>
<polygon fill="#63b8ff" stroke="#63b8ff" points="122.13,-511.13 130.83,-505.09 120.26,-504.39 122.13,-511.13"/>
</a>
</g>
</g>
<!-- Node15 -->
<g id="Node000015" class="node">
<title>Node15</title>
<g id="a_Node000015"><a xlink:href="BLDCComprehensiveTest_8cpp.html#ae1eb89ea1deff1cfee6852cca928893e" target="_top" xlink:title=" ">
<polygon fill="white" stroke="#666666" points="246,-468 109,-468 109,-449 246,-449 246,-468"/>
<text text-anchor="middle" x="177.5" y="-456" font-family="Helvetica,sans-Serif" font-size="10.00">test_bldc_error_handling</text>
</a>
</g>
</g>
<!-- Node1&#45;&gt;Node15 -->
<g id="edge20_Node000001_Node000015" class="edge">
<title>Node1&#45;&gt;Node15</title>
<g id="a_edge20_Node000001_Node000015"><a xlink:title=" ">
<path fill="none" stroke="#63b8ff" d="M39.46,-540.87C49.88,-524.89 72.99,-493.01 101,-476.5 103.99,-474.74 107.15,-473.14 110.4,-471.71"/>
<polygon fill="#63b8ff" stroke="#63b8ff" points="111.74,-474.95 119.79,-468.06 109.2,-468.42 111.74,-474.95"/>
</a>
</g>
</g>
<!-- Node16 -->
<g id="Node000016" class="node">
<title>Node16</title>
<g id="a_Node000016"><a xlink:href="BLDCComprehensiveTest_8cpp.html#a9305f4e77dbdfc7c8788b2568e023447" target="_top" xlink:title=" ">
<polygon fill="white" stroke="#666666" points="237.5,-430.5 117.5,-430.5 117.5,-400.5 237.5,-400.5 237.5,-430.5"/>
<text text-anchor="start" x="125.5" y="-418.5" font-family="Helvetica,sans-Serif" font-size="10.00">test_bldc_foc_control</text>
<text text-anchor="middle" x="177.5" y="-407.5" font-family="Helvetica,sans-Serif" font-size="10.00">_configuration</text>
</a>
</g>
</g>
<!-- Node1&#45;&gt;Node16 -->
<g id="edge22_Node000001_Node000016" class="edge">
<title>Node1&#45;&gt;Node16</title>
<g id="a_edge22_Node000001_Node000016"><a xlink:title=" ">
<path fill="none" stroke="#63b8ff" d="M36.69,-540.89C44.28,-519.44 65.53,-467.37 101,-439.5 103.41,-437.61 105.97,-435.86 108.64,-434.25"/>
<polygon fill="#63b8ff" stroke="#63b8ff" points="110.29,-437.34 117.48,-429.56 107,-431.16 110.29,-437.34"/>
</a>
</g>
</g>
<!-- Node17 -->
<g id="Node000017" class="node">
<title>Node17</title>
<g id="a_Node000017"><a xlink:href="BLDCComprehensiveTest_8cpp.html#af2864f0cb579d93d0764e20fcee7706f" target="_top" xlink:title=" ">
<polygon fill="white" stroke="#666666" points="238.5,-382.5 116.5,-382.5 116.5,-352.5 238.5,-352.5 238.5,-382.5"/>
<text text-anchor="start" x="124.5" y="-370.5" font-family="Helvetica,sans-Serif" font-size="10.00">test_bldc_hall_sensor</text>
<text text-anchor="middle" x="177.5" y="-359.5" font-family="Helvetica,sans-Serif" font-size="10.00">_configuration</text>
</a>
</g>
</g>
<!-- Node1&#45;&gt;Node17 -->
<g id="edge24_Node000001_Node000017" class="edge">
<title>Node1&#45;&gt;Node17</title>
<g id="a_edge24_Node000001_Node000017"><a xlink:title=" ">
<path fill="none" stroke="#63b8ff" d="M34.8,-540.66C38.99,-512.97 54.65,-433.69 101,-391.5 102.96,-389.72 105.05,-388.07 107.24,-386.54"/>
<polygon fill="#63b8ff" stroke="#63b8ff" points="109.34,-389.36 116.13,-381.23 105.75,-383.35 109.34,-389.36"/>
</a>
</g>
</g>
<!-- Node18 -->
<g id="Node000018" class="node">
<title>Node18</title>
<g id="a_Node000018"><a xlink:href="BLDCComprehensiveTest_8cpp.html#a3ef29745e5282408e0a1de2a23f01b87" target="_top" xlink:title=" ">
<polygon fill="white" stroke="#666666" points="247,-190.5 108,-190.5 108,-160.5 247,-160.5 247,-190.5"/>
<text text-anchor="start" x="116" y="-178.5" font-family="Helvetica,sans-Serif" font-size="10.00">test_bldc_motor_runtime</text>
<text text-anchor="middle" x="177.5" y="-167.5" font-family="Helvetica,sans-Serif" font-size="10.00">_configuration</text>
</a>
</g>
</g>
<!-- Node1&#45;&gt;Node18 -->
<g id="edge26_Node000001_Node000018" class="edge">
<title>Node1&#45;&gt;Node18</title>
<g id="a_edge26_Node000001_Node000018"><a xlink:title=" ">
<path fill="none" stroke="#63b8ff" d="M34.06,-540.72C37.18,-489.49 54.01,-252.38 101,-199.5 101.75,-198.65 102.54,-197.83 103.35,-197.04"/>
<polygon fill="#63b8ff" stroke="#63b8ff" points="105.68,-199.66 111.3,-190.68 101.31,-194.19 105.68,-199.66"/>
</a>
</g>
</g>
<!-- Node31 -->
<g id="Node000031" class="node">
<title>Node31</title>
<g id="a_Node000031"><a xlink:href="BLDCComprehensiveTest_8cpp.html#ab49e708a05302710c349ba61532c9ed6" target="_top" xlink:title=" ">
<polygon fill="white" stroke="#666666" points="238.5,-334.5 116.5,-334.5 116.5,-304.5 238.5,-304.5 238.5,-334.5"/>
<text text-anchor="start" x="124.5" y="-322.5" font-family="Helvetica,sans-Serif" font-size="10.00">test_bldc_motor_type</text>
<text text-anchor="middle" x="177.5" y="-311.5" font-family="Helvetica,sans-Serif" font-size="10.00">_configuration</text>
</a>
</g>
</g>
<!-- Node1&#45;&gt;Node31 -->
<g id="edge40_Node000001_Node000031" class="edge">
<title>Node1&#45;&gt;Node31</title>
<g id="a_edge40_Node000001_Node000031"><a xlink:title=" ">
<path fill="none" stroke="#63b8ff" d="M33.7,-540.68C34.91,-507.84 43.32,-400.75 101,-343.5 102.92,-341.59 104.99,-339.84 107.18,-338.22"/>
<polygon fill="#63b8ff" stroke="#63b8ff" points="109.49,-340.91 116.13,-332.65 105.79,-334.96 109.49,-340.91"/>
</a>
</g>
</g>
<!-- Node32 -->
<g id="Node000032" class="node">
<title>Node32</title>
<g id="a_Node000032"><a xlink:href="BLDCComprehensiveTest_8cpp.html#a724bb76dbdd727b59fe4420354cebc5f" target="_top" xlink:title=" ">
<polygon fill="white" stroke="#666666" points="241.5,-286.5 113.5,-286.5 113.5,-256.5 241.5,-256.5 241.5,-286.5"/>
<text text-anchor="start" x="121.5" y="-274.5" font-family="Helvetica,sans-Serif" font-size="10.00">test_bldc_performance</text>
<text text-anchor="middle" x="177.5" y="-263.5" font-family="Helvetica,sans-Serif" font-size="10.00">_benchmarks</text>
</a>
</g>
</g>
<!-- Node1&#45;&gt;Node32 -->
<g id="edge42_Node000001_Node000032" class="edge">
<title>Node1&#45;&gt;Node32</title>
<g id="a_edge42_Node000001_Node000032"><a xlink:title=" ">
<path fill="none" stroke="#63b8ff" d="M33,-540.87C31.61,-503.73 31.68,-368.3 101,-295.5 102.24,-294.2 103.55,-292.97 104.92,-291.8"/>
<polygon fill="#63b8ff" stroke="#63b8ff" points="107.2,-294.47 113.34,-285.84 103.15,-288.76 107.2,-294.47"/>
</a>
</g>
</g>
<!-- Node33 -->
<g id="Node000033" class="node">
<title>Node33</title>
<g id="a_Node000033"><a xlink:href="BLDCComprehensiveTest_8cpp.html#a5ca22fdda273207ad40974a5c60cd3fc" target="_top" xlink:title=" ">
<polygon fill="white" stroke="#666666" points="254,-819.5 101,-819.5 101,-789.5 254,-789.5 254,-819.5"/>
<text text-anchor="start" x="109" y="-807.5" font-family="Helvetica,sans-Serif" font-size="10.00">test_bldc_startup_shutdown</text>
<text text-anchor="middle" x="177.5" y="-796.5" font-family="Helvetica,sans-Serif" font-size="10.00">_procedures</text>
</a>
</g>
</g>
<!-- Node1&#45;&gt;Node33 -->
<g id="edge44_Node000001_Node000033" class="edge">
<title>Node1&#45;&gt;Node33</title>
<g id="a_edge44_Node000001_Node000033"><a xlink:title=" ">
<path fill="none" stroke="#63b8ff" d="M33.33,-560.39C33.26,-595.57 37.86,-715.94 101,-780.5 101.95,-781.47 102.93,-782.4 103.95,-783.29"/>
<polygon fill="#63b8ff" stroke="#63b8ff" points="102.23,-786.36 112.37,-789.42 106.35,-780.7 102.23,-786.36"/>
</a>
</g>
</g>
<!-- Node34 -->
<g id="Node000034" class="node">
<title>Node34</title>
<g id="a_Node000034"><a xlink:href="BLDCComprehensiveTest_8cpp.html#ac61213b066c19dbf1e8299ffacf6707c" target="_top" xlink:title=" ">
<polygon fill="white" stroke="#666666" points="234.5,-238.5 120.5,-238.5 120.5,-208.5 234.5,-208.5 234.5,-238.5"/>
<text text-anchor="start" x="128.5" y="-226.5" font-family="Helvetica,sans-Serif" font-size="10.00">test_bldc_telemetry</text>
<text text-anchor="middle" x="177.5" y="-215.5" font-family="Helvetica,sans-Serif" font-size="10.00">_monitoring</text>
</a>
</g>
</g>
<!-- Node1&#45;&gt;Node34 -->
<g id="edge46_Node000001_Node000034" class="edge">
<title>Node1&#45;&gt;Node34</title>
<g id="a_edge46_Node000001_Node000034"><a xlink:title=" ">
<path fill="none" stroke="#63b8ff" d="M34.37,-540.84C38.76,-494.18 59.89,-292.43 101,-247.5 103.98,-244.25 107.39,-241.43 111.09,-239"/>
<polygon fill="#63b8ff" stroke="#63b8ff" points="113.1,-241.88 120.16,-233.98 109.71,-235.76 113.1,-241.88"/>
</a>
</g>
</g>
<!-- Node35 -->
<g id="Node000035" class="node">
<title>Node35</title>
<g id="a_Node000035"><a xlink:href="BLDCComprehensiveTest_8cpp.html#a3bf48ef75831b59043e850f8cf0b1e08" target="_top" xlink:title=" ">
<polygon fill="white" stroke="#666666" points="230,-771.5 125,-771.5 125,-741.5 230,-741.5 230,-771.5"/>
<text text-anchor="start" x="133" y="-759.5" font-family="Helvetica,sans-Serif" font-size="10.00">test_bldc_velocity</text>
<text text-anchor="middle" x="177.5" y="-748.5" font-family="Helvetica,sans-Serif" font-size="10.00">_control</text>
</a>
</g>
</g>
<!-- Node1&#45;&gt;Node35 -->
<g id="edge49_Node000001_Node000035" class="edge">
<title>Node1&#45;&gt;Node35</title>
<g id="a_edge49_Node000001_Node000035"><a xlink:title=" ">
<path fill="none" stroke="#63b8ff" d="M34.21,-560.41C36.94,-590.74 49.3,-683.19 101,-732.5 105.27,-736.57 110.23,-739.96 115.53,-742.77"/>
<polygon fill="#63b8ff" stroke="#63b8ff" points="114.16,-745.99 124.71,-746.97 117.08,-739.62 114.16,-745.99"/>
</a>
</g>
</g>
<!-- Node4 -->
<g id="Node000004" class="node">
<title>Node4</title>
<g id="a_Node000004"><a xlink:href="TestFramework_8h.html#a57a48f91a141d98e45f82937581e1a97" target="_top" xlink:title="Automatically initialize GPIO14 test indicator if not already done.">
<polygon fill="white" stroke="#666666" points="442.5,-878 301.5,-878 301.5,-859 442.5,-859 442.5,-878"/>
<text text-anchor="middle" x="372" y="-866" font-family="Helvetica,sans-Serif" font-size="10.00">ensure_gpio14_initialized</text>
</a>
</g>
</g>
<!-- Node3&#45;&gt;Node4 -->
<g id="edge3_Node000003_Node000004" class="edge">
<title>Node3&#45;&gt;Node4</title>
<g id="a_edge3_Node000003_Node000004"><a xlink:title=" ">
<path fill="none" stroke="#63b8ff" d="M229.58,-884.66C248.44,-882.51 270.29,-880.01 291.09,-877.63"/>
<polygon fill="#63b8ff" stroke="#63b8ff" points="291.66,-881.09 301.2,-876.48 290.86,-874.14 291.66,-881.09"/>
</a>
</g>
</g>
<!-- Node5 -->
<g id="Node000005" class="node">
<title>Node5</title>
<g id="a_Node000005"><a xlink:href="TestFramework_8h.html#a3967179ac699a5b02ef9787b549409fe" target="_top" xlink:title="Initialize the test progression indicator on GPIO14.">
<polygon fill="white" stroke="#666666" points="630.5,-883.5 526.5,-883.5 526.5,-853.5 630.5,-853.5 630.5,-883.5"/>
<text text-anchor="start" x="534.5" y="-871.5" font-family="Helvetica,sans-Serif" font-size="10.00">init_test_progress</text>
<text text-anchor="middle" x="578.5" y="-860.5" font-family="Helvetica,sans-Serif" font-size="10.00">_indicator</text>
</a>
</g>
</g>
<!-- Node4&#45;&gt;Node5 -->
<g id="edge4_Node000004_Node000005" class="edge">
<title>Node4&#45;&gt;Node5</title>
<g id="a_edge4_Node000004_Node000005"><a xlink:title=" ">
<path fill="none" stroke="#63b8ff" d="M442.52,-868.5C466.42,-868.5 493,-868.5 516.2,-868.5"/>
<polygon fill="#63b8ff" stroke="#63b8ff" points="516.26,-872 526.26,-868.5 516.26,-865 516.26,-872"/>
</a>
</g>
</g>
<!-- Node6&#45;&gt;Node4 -->
<g id="edge6_Node000006_Node000004" class="edge">
<title>Node6&#45;&gt;Node4</title>
<g id="a_edge6_Node000006_Node000004"><a xlink:title=" ">
<path fill="none" stroke="#63b8ff" d="M235.22,-853.69C252.79,-855.6 272.5,-857.75 291.34,-859.81"/>
<polygon fill="#63b8ff" stroke="#63b8ff" points="291.07,-863.3 301.39,-860.91 291.83,-856.34 291.07,-863.3"/>
</a>
</g>
</g>
<!-- Node8 -->
<g id="Node000008" class="node">
<title>Node8</title>
<g id="a_Node000008"><a xlink:href="BootloaderComprehensiveTest_8cpp.html#a193b30ef3686c5852a972b9995d3ee6e" target="_top" xlink:title=" ">
<polygon fill="white" stroke="#666666" points="424.5,-505 319.5,-505 319.5,-486 424.5,-486 424.5,-505"/>
<text text-anchor="middle" x="372" y="-493" font-family="Helvetica,sans-Serif" font-size="10.00">create_test_driver</text>
</a>
</g>
</g>
<!-- Node7&#45;&gt;Node8 -->
<g id="edge8_Node000007_Node000008" class="edge">
<title>Node7&#45;&gt;Node8</title>
<g id="a_edge8_Node000007_Node000008"><a xlink:title=" ">
<path fill="none" stroke="#63b8ff" d="M239.4,-693.49C244.59,-690.94 249.55,-687.97 254,-684.5 313.26,-638.31 350.05,-553.06 364.28,-514.88"/>
<polygon fill="#63b8ff" stroke="#63b8ff" points="367.59,-516.02 367.69,-505.43 361,-513.64 367.59,-516.02"/>
</a>
</g>
</g>
<!-- Node9 -->
<g id="Node000009" class="node">
<title>Node9</title>
<g id="a_Node000009"><a xlink:href="Esp32TMC9660Bus_8hpp.html#a6a65828a097e44c42edb1c62d89ee262" target="_top" xlink:title="Create and initialize SPI communication interface.">
<polygon fill="white" stroke="#666666" points="631.5,-505 525.5,-505 525.5,-486 631.5,-486 631.5,-505"/>
<text text-anchor="middle" x="578.5" y="-493" font-family="Helvetica,sans-Serif" font-size="10.00">createSPIInterface</text>
</a>
</g>
</g>
<!-- Node8&#45;&gt;Node9 -->
<g id="edge9_Node000008_Node000009" class="edge">
<title>Node8&#45;&gt;Node9</title>
<g id="a_edge9_Node000008_Node000009"><a xlink:title=" ">
<path fill="none" stroke="#63b8ff" d="M424.6,-495.5C452.12,-495.5 486.19,-495.5 515.18,-495.5"/>
<polygon fill="#63b8ff" stroke="#63b8ff" points="515.2,-499 525.2,-495.5 515.2,-492 515.2,-499"/>
</a>
</g>
</g>
<!-- Node10&#45;&gt;Node8 -->
<g id="edge11_Node000010_Node000008" class="edge">
<title>Node10&#45;&gt;Node8</title>
<g id="a_edge11_Node000010_Node000008"><a xlink:title=" ">
<path fill="none" stroke="#63b8ff" d="M237.36,-645.51C243.21,-642.94 248.87,-639.96 254,-636.5 303.03,-603.46 342.55,-544.06 360.51,-514"/>
<polygon fill="#63b8ff" stroke="#63b8ff" points="363.55,-515.74 365.57,-505.34 357.5,-512.21 363.55,-515.74"/>
</a>
</g>
</g>
<!-- Node11&#45;&gt;Node8 -->
<g id="edge13_Node000011_Node000008" class="edge">
<title>Node11&#45;&gt;Node8</title>
<g id="a_edge13_Node000011_Node000008"><a xlink:title=" ">
<path fill="none" stroke="#63b8ff" d="M233.9,-597.48C240.83,-594.85 247.69,-591.86 254,-588.5 293.39,-567.51 332.67,-532.73 354.21,-512.18"/>
<polygon fill="#63b8ff" stroke="#63b8ff" points="356.81,-514.53 361.55,-505.06 351.94,-509.5 356.81,-514.53"/>
</a>
</g>
</g>
<!-- Node12&#45;&gt;Node8 -->
<g id="edge15_Node000012_Node000008" class="edge">
<title>Node12&#45;&gt;Node8</title>
<g id="a_edge15_Node000012_Node000008"><a xlink:title=" ">
<path fill="none" stroke="#63b8ff" d="M225.27,-559.99C234.88,-557.58 244.85,-554.74 254,-551.5 286.46,-540.01 321.89,-522.26 345.16,-509.83"/>
<polygon fill="#63b8ff" stroke="#63b8ff" points="346.91,-512.87 354.05,-505.03 343.59,-506.71 346.91,-512.87"/>
</a>
</g>
</g>
<!-- Node13&#45;&gt;Node8 -->
<g id="edge17_Node000013_Node000008" class="edge">
<title>Node13&#45;&gt;Node8</title>
<g id="a_edge17_Node000013_Node000008"><a xlink:title=" ">
<path fill="none" stroke="#63b8ff" d="M228.07,-522.97C253.46,-518.09 284.56,-512.11 311.26,-506.98"/>
<polygon fill="#63b8ff" stroke="#63b8ff" points="312.1,-510.39 321.26,-505.06 310.78,-503.51 312.1,-510.39"/>
</a>
</g>
</g>
<!-- Node14&#45;&gt;Node8 -->
<g id="edge19_Node000014_Node000008" class="edge">
<title>Node14&#45;&gt;Node8</title>
<g id="a_edge19_Node000014_Node000008"><a xlink:title=" ">
<path fill="none" stroke="#63b8ff" d="M239.14,-495.5C261.51,-495.5 286.86,-495.5 309.31,-495.5"/>
<polygon fill="#63b8ff" stroke="#63b8ff" points="309.4,-499 319.4,-495.5 309.4,-492 309.4,-499"/>
</a>
</g>
</g>
<!-- Node15&#45;&gt;Node8 -->
<g id="edge21_Node000015_Node000008" class="edge">
<title>Node15&#45;&gt;Node8</title>
<g id="a_edge21_Node000015_Node000008"><a xlink:title=" ">
<path fill="none" stroke="#63b8ff" d="M228.07,-468.03C253.46,-472.91 284.56,-478.89 311.26,-484.02"/>
<polygon fill="#63b8ff" stroke="#63b8ff" points="310.78,-487.49 321.26,-485.94 312.1,-480.61 310.78,-487.49"/>
</a>
</g>
</g>
<!-- Node16&#45;&gt;Node8 -->
<g id="edge23_Node000016_Node000008" class="edge">
<title>Node16&#45;&gt;Node8</title>
<g id="a_edge23_Node000016_Node000008"><a xlink:title=" ">
<path fill="none" stroke="#63b8ff" d="M229.2,-430.55C237.56,-433.33 246.07,-436.36 254,-439.5 285.65,-452.04 320.72,-469.29 344.13,-481.33"/>
<polygon fill="#63b8ff" stroke="#63b8ff" points="342.62,-484.48 353.11,-485.98 345.84,-478.27 342.62,-484.48"/>
</a>
</g>
</g>
<!-- Node17&#45;&gt;Node8 -->
<g id="edge25_Node000017_Node000008" class="edge">
<title>Node17&#45;&gt;Node8</title>
<g id="a_edge25_Node000017_Node000008"><a xlink:title=" ">
<path fill="none" stroke="#63b8ff" d="M234.87,-382.51C241.5,-385.11 248.02,-388.1 254,-391.5 295.45,-415.08 335.04,-455.19 355.85,-478.09"/>
<polygon fill="#63b8ff" stroke="#63b8ff" points="353.36,-480.57 362.64,-485.69 358.59,-475.9 353.36,-480.57"/>
</a>
</g>
</g>
<!-- Node18&#45;&gt;Node8 -->
<g id="edge38_Node000018_Node000008" class="edge">
<title>Node18&#45;&gt;Node8</title>
<g id="a_edge38_Node000018_Node000008"><a xlink:title=" ">
<path fill="none" stroke="#63b8ff" d="M241.56,-190.52C246.06,-193.06 250.28,-196.03 254,-199.5 337.73,-277.67 362.57,-423.32 369,-475.92"/>
<polygon fill="#63b8ff" stroke="#63b8ff" points="365.53,-476.39 370.13,-485.93 372.48,-475.6 365.53,-476.39"/>
</a>
</g>
</g>
<!-- Node19 -->
<g id="Node000019" class="node">
<title>Node19</title>
<g id="a_Node000019"><a xlink:href="BLDCComprehensiveTest_8cpp.html#aaa6256cb75ad3e8ab36a7b9b6942e58a" target="_top" xlink:title=" ">
<polygon fill="white" stroke="#666666" points="454,-185 290,-185 290,-166 454,-166 454,-185"/>
<text text-anchor="middle" x="372" y="-173" font-family="Helvetica,sans-Serif" font-size="10.00">configureCompleteBLDCMotor</text>
</a>
</g>
</g>
<!-- Node18&#45;&gt;Node19 -->
<g id="edge27_Node000018_Node000019" class="edge">
<title>Node18&#45;&gt;Node19</title>
<g id="a_edge27_Node000018_Node000019"><a xlink:title=" ">
<path fill="none" stroke="#63b8ff" d="M247.18,-175.5C257.76,-175.5 268.83,-175.5 279.81,-175.5"/>
<polygon fill="#63b8ff" stroke="#63b8ff" points="279.85,-179 289.85,-175.5 279.85,-172 279.85,-179"/>
</a>
</g>
</g>
<!-- Node30 -->
<g id="Node000030" class="node">
<title>Node30</title>
<g id="a_Node000030"><a xlink:href="BLDCComprehensiveTest_8cpp.html#a1747c1efdce438b256df6c7f22c9efba" target="_top" xlink:title=" ">
<polygon fill="white" stroke="#666666" points="428,-228 316,-228 316,-209 428,-209 428,-228"/>
<text text-anchor="middle" x="372" y="-216" font-family="Helvetica,sans-Serif" font-size="10.00">log_telemetry_data</text>
</a>
</g>
</g>
<!-- Node18&#45;&gt;Node30 -->
<g id="edge39_Node000018_Node000030" class="edge">
<title>Node18&#45;&gt;Node30</title>
<g id="a_edge39_Node000018_Node000030"><a xlink:title=" ">
<path fill="none" stroke="#63b8ff" d="M245.83,-190.54C269.61,-195.85 296,-201.75 318.39,-206.75"/>
<polygon fill="#63b8ff" stroke="#63b8ff" points="317.85,-210.21 328.37,-208.98 319.37,-203.38 317.85,-210.21"/>
</a>
</g>
</g>
<!-- Node20 -->
<g id="Node000020" class="node">
<title>Node20</title>
<g id="a_Node000020"><a xlink:href="BLDCComprehensiveTest_8cpp.html#a48117104967d8760b294c87608e410ff" target="_top" xlink:title=" ">
<polygon fill="white" stroke="#666666" points="644,-130 513,-130 513,-111 644,-111 644,-130"/>
<text text-anchor="middle" x="578.5" y="-118" font-family="Helvetica,sans-Serif" font-size="10.00">configureBrakeForBLDC</text>
</a>
</g>
</g>
<!-- Node19&#45;&gt;Node20 -->
<g id="edge28_Node000019_Node000020" class="edge">
<title>Node19&#45;&gt;Node20</title>
<g id="a_edge28_Node000019_Node000020"><a xlink:title=" ">
<path fill="none" stroke="#63b8ff" d="M400.66,-165.86C424.22,-157.87 459.07,-146.55 490,-138.5 498.51,-136.29 507.53,-134.17 516.44,-132.22"/>
<polygon fill="#63b8ff" stroke="#63b8ff" points="517.35,-135.6 526.4,-130.09 515.89,-128.76 517.35,-135.6"/>
</a>
</g>
</g>
<!-- Node21 -->
<g id="Node000021" class="node">
<title>Node21</title>
<g id="a_Node000021"><a xlink:href="BLDCComprehensiveTest_8cpp.html#a0f096f9335c63088b35dbe32cfda477d" target="_top" xlink:title=" ">
<polygon fill="white" stroke="#666666" points="667,-93 490,-93 490,-74 667,-74 667,-93"/>
<text text-anchor="middle" x="578.5" y="-81" font-family="Helvetica,sans-Serif" font-size="10.00">configureCurrentSensingForBLDC</text>
</a>
</g>
</g>
<!-- Node19&#45;&gt;Node21 -->
<g id="edge29_Node000019_Node000021" class="edge">
<title>Node19&#45;&gt;Node21</title>
<g id="a_edge29_Node000019_Node000021"><a xlink:title=" ">
<path fill="none" stroke="#63b8ff" d="M384.83,-165.93C405.1,-150.05 448.32,-118.31 490,-101.5 495.34,-99.34 500.98,-97.44 506.71,-95.75"/>
<polygon fill="#63b8ff" stroke="#63b8ff" points="507.68,-99.11 516.41,-93.11 505.84,-92.36 507.68,-99.11"/>
</a>
</g>
</g>
<!-- Node22 -->
<g id="Node000022" class="node">
<title>Node22</title>
<g id="a_Node000022"><a xlink:href="BLDCComprehensiveTest_8cpp.html#a027f857dabbd63bdc7d015c4448f982f" target="_top" xlink:title=" ">
<polygon fill="white" stroke="#666666" points="657.5,-56 499.5,-56 499.5,-37 657.5,-37 657.5,-56"/>
<text text-anchor="middle" x="578.5" y="-44" font-family="Helvetica,sans-Serif" font-size="10.00">configureFOCControlForBLDC</text>
</a>
</g>
</g>
<!-- Node19&#45;&gt;Node22 -->
<g id="edge30_Node000019_Node000022" class="edge">
<title>Node19&#45;&gt;Node22</title>
<g id="a_edge30_Node000019_Node000022"><a xlink:title=" ">
<path fill="none" stroke="#63b8ff" d="M379.97,-165.94C396.43,-144.12 440.11,-90.54 490,-64.5 493.71,-62.56 497.61,-60.83 501.63,-59.29"/>
<polygon fill="#63b8ff" stroke="#63b8ff" points="502.83,-62.58 511.15,-56.02 500.55,-55.96 502.83,-62.58"/>
</a>
</g>
</g>
<!-- Node23 -->
<g id="Node000023" class="node">
<title>Node23</title>
<g id="a_Node000023"><a xlink:href="BLDCComprehensiveTest_8cpp.html#aecdf284d22d080dd3753a35cf58b194c" target="_top" xlink:title=" ">
<polygon fill="white" stroke="#666666" points="656.5,-19 500.5,-19 500.5,0 656.5,0 656.5,-19"/>
<text text-anchor="middle" x="578.5" y="-7" font-family="Helvetica,sans-Serif" font-size="10.00">configureGateDriverForBLDC</text>
</a>
</g>
</g>
<!-- Node19&#45;&gt;Node23 -->
<g id="edge31_Node000019_Node000023" class="edge">
<title>Node19&#45;&gt;Node23</title>
<g id="a_edge31_Node000019_Node000023"><a xlink:title=" ">
<path fill="none" stroke="#63b8ff" d="M377.49,-166C390.62,-139.33 431.73,-63.42 490,-27.5 492.69,-25.84 495.5,-24.34 498.4,-22.97"/>
<polygon fill="#63b8ff" stroke="#63b8ff" points="500.01,-26.09 507.92,-19.04 497.34,-19.62 500.01,-26.09"/>
</a>
</g>
</g>
<!-- Node24 -->
<g id="Node000024" class="node">
<title>Node24</title>
<g id="a_Node000024"><a xlink:href="BLDCComprehensiveTest_8cpp.html#a07ab319bd2748236c75233652869276e" target="_top" xlink:title=" ">
<polygon fill="white" stroke="#666666" points="654.5,-364 502.5,-364 502.5,-345 654.5,-345 654.5,-364"/>
<text text-anchor="middle" x="578.5" y="-352" font-family="Helvetica,sans-Serif" font-size="10.00">configureHeartbeatForBLDC</text>
</a>
</g>
</g>
<!-- Node19&#45;&gt;Node24 -->
<g id="edge32_Node000019_Node000024" class="edge">
<title>Node19&#45;&gt;Node24</title>
<g id="a_edge32_Node000019_Node000024"><a xlink:title=" ">
<path fill="none" stroke="#63b8ff" d="M431.96,-185.06C440.16,-188.51 447.87,-193.19 454,-199.5 497.56,-244.36 444.8,-292.29 490,-335.5 491.47,-336.91 493.03,-338.23 494.65,-339.45"/>
<polygon fill="#63b8ff" stroke="#63b8ff" points="492.93,-342.5 503.25,-344.87 496.66,-336.58 492.93,-342.5"/>
</a>
</g>
</g>
<!-- Node25 -->
<g id="Node000025" class="node">
<title>Node25</title>
<g id="a_Node000025"><a xlink:href="BLDCComprehensiveTest_8cpp.html#a15952d660a687a8576101294cc739448" target="_top" xlink:title=" ">
<polygon fill="white" stroke="#666666" points="651.5,-326.5 505.5,-326.5 505.5,-296.5 651.5,-296.5 651.5,-326.5"/>
<text text-anchor="start" x="513.5" y="-314.5" font-family="Helvetica,sans-Serif" font-size="10.00">configureMotorParameters</text>
<text text-anchor="middle" x="578.5" y="-303.5" font-family="Helvetica,sans-Serif" font-size="10.00">ForBLDC</text>
</a>
</g>
</g>
<!-- Node19&#45;&gt;Node25 -->
<g id="edge33_Node000019_Node000025" class="edge">
<title>Node19&#45;&gt;Node25</title>
<g id="a_edge33_Node000019_Node000025"><a xlink:title=" ">
<path fill="none" stroke="#63b8ff" d="M429.57,-185.15C438.48,-188.58 447.03,-193.22 454,-199.5 485.09,-227.51 458.77,-258.64 490,-286.5 492.01,-288.29 494.14,-289.96 496.37,-291.51"/>
<polygon fill="#63b8ff" stroke="#63b8ff" points="495.01,-294.77 505.38,-296.9 498.6,-288.76 495.01,-294.77"/>
</a>
</g>
</g>
<!-- Node26 -->
<g id="Node000026" class="node">
<title>Node26</title>
<g id="a_Node000026"><a xlink:href="BLDCComprehensiveTest_8cpp.html#a098cc37a3006922b2fee401c2a874c1e" target="_top" xlink:title=" ">
<polygon fill="white" stroke="#666666" points="645,-278 512,-278 512,-259 645,-259 645,-278"/>
<text text-anchor="middle" x="578.5" y="-266" font-family="Helvetica,sans-Serif" font-size="10.00">configurePowerForBLDC</text>
</a>
</g>
</g>
<!-- Node19&#45;&gt;Node26 -->
<g id="edge34_Node000019_Node000026" class="edge">
<title>Node19&#45;&gt;Node26</title>
<g id="a_edge34_Node000019_Node000026"><a xlink:title=" ">
<path fill="none" stroke="#63b8ff" d="M424.19,-185.12C434.65,-188.56 445.15,-193.22 454,-199.5 476.33,-215.35 467.1,-234.49 490,-249.5 493.83,-252.01 497.94,-254.2 502.22,-256.1"/>
<polygon fill="#63b8ff" stroke="#63b8ff" points="501.2,-259.46 511.79,-259.82 503.74,-252.94 501.2,-259.46"/>
</a>
</g>
</g>
<!-- Node27 -->
<g id="Node000027" class="node">
<title>Node27</title>
<g id="a_Node000027"><a xlink:href="BLDCComprehensiveTest_8cpp.html#a88f027de413792c34d771b44a6b9dce5" target="_top" xlink:title=" ">
<polygon fill="white" stroke="#666666" points="654.5,-241 502.5,-241 502.5,-222 654.5,-222 654.5,-241"/>
<text text-anchor="middle" x="578.5" y="-229" font-family="Helvetica,sans-Serif" font-size="10.00">configureProtectionForBLDC</text>
</a>
</g>
</g>
<!-- Node19&#45;&gt;Node27 -->
<g id="edge35_Node000019_Node000027" class="edge">
<title>Node19&#45;&gt;Node27</title>
<g id="a_edge35_Node000019_Node000027"><a xlink:title=" ">
<path fill="none" stroke="#63b8ff" d="M407.03,-185.1C421.56,-189.33 438.67,-194.47 454,-199.5 470.16,-204.81 473.65,-207.8 490,-212.5 499.09,-215.12 508.81,-217.56 518.33,-219.77"/>
<polygon fill="#63b8ff" stroke="#63b8ff" points="517.63,-223.2 528.16,-221.98 519.17,-216.37 517.63,-223.2"/>
</a>
</g>
</g>
<!-- Node28 -->
<g id="Node000028" class="node">
<title>Node28</title>
<g id="a_Node000028"><a xlink:href="BLDCComprehensiveTest_8cpp.html#a392bde9e1f3cb33dfab6dfa525b047df" target="_top" xlink:title=" ">
<polygon fill="white" stroke="#666666" points="644,-204 513,-204 513,-185 644,-185 644,-204"/>
<text text-anchor="middle" x="578.5" y="-192" font-family="Helvetica,sans-Serif" font-size="10.00">configureRampForBLDC</text>
</a>
</g>
</g>
<!-- Node19&#45;&gt;Node28 -->
<g id="edge36_Node000019_Node000028" class="edge">
<title>Node19&#45;&gt;Node28</title>
<g id="a_edge36_Node000019_Node000028"><a xlink:title=" ">
<path fill="none" stroke="#63b8ff" d="M454.12,-183.04C470.13,-184.52 486.86,-186.08 502.65,-187.55"/>
<polygon fill="#63b8ff" stroke="#63b8ff" points="502.59,-191.06 512.87,-188.5 503.24,-184.09 502.59,-191.06"/>
</a>
</g>
</g>
<!-- Node29 -->
<g id="Node000029" class="node">
<title>Node29</title>
<g id="a_Node000029"><a xlink:href="BLDCComprehensiveTest_8cpp.html#a0b9016e9b6d9e3d930dc7185df274210" target="_top" xlink:title=" ">
<polygon fill="white" stroke="#666666" points="657.5,-167 499.5,-167 499.5,-148 657.5,-148 657.5,-167"/>
<text text-anchor="middle" x="578.5" y="-155" font-family="Helvetica,sans-Serif" font-size="10.00">configureStopEventsForBLDC</text>
</a>
</g>
</g>
<!-- Node19&#45;&gt;Node29 -->
<g id="edge37_Node000019_Node000029" class="edge">
<title>Node19&#45;&gt;Node29</title>
<g id="a_edge37_Node000019_Node000029"><a xlink:title=" ">
<path fill="none" stroke="#63b8ff" d="M454.12,-168.36C465.67,-167.34 477.61,-166.29 489.29,-165.26"/>
<polygon fill="#63b8ff" stroke="#63b8ff" points="489.83,-168.73 499.48,-164.37 489.21,-161.76 489.83,-168.73"/>
</a>
</g>
</g>
<!-- Node31&#45;&gt;Node8 -->
<g id="edge41_Node000031_Node000008" class="edge">
<title>Node31&#45;&gt;Node8</title>
<g id="a_edge41_Node000031_Node000008"><a xlink:title=" ">
<path fill="none" stroke="#63b8ff" d="M238.27,-334.65C243.81,-337.17 249.16,-340.11 254,-343.5 305.18,-379.37 344.21,-444.35 361.39,-476.47"/>
<polygon fill="#63b8ff" stroke="#63b8ff" points="358.46,-478.42 366.19,-485.67 364.66,-475.18 358.46,-478.42"/>
</a>
</g>
</g>
<!-- Node32&#45;&gt;Node8 -->
<g id="edge43_Node000032_Node000008" class="edge">
<title>Node32&#45;&gt;Node8</title>
<g id="a_edge43_Node000032_Node000008"><a xlink:title=" ">
<path fill="none" stroke="#63b8ff" d="M239.87,-286.59C244.91,-289.12 249.7,-292.06 254,-295.5 315.87,-344.98 351.79,-436.7 365.07,-476.38"/>
<polygon fill="#63b8ff" stroke="#63b8ff" points="361.75,-477.47 368.16,-485.91 368.41,-475.32 361.75,-477.47"/>
</a>
</g>
</g>
<!-- Node33&#45;&gt;Node8 -->
<g id="edge45_Node000033_Node000008" class="edge">
<title>Node33&#45;&gt;Node8</title>
<g id="a_edge45_Node000033_Node000008"><a xlink:title=" ">
<path fill="none" stroke="#63b8ff" d="M241.51,-789.43C246.02,-786.9 250.26,-783.95 254,-780.5 335,-705.87 361.39,-566.89 368.62,-515.38"/>
<polygon fill="#63b8ff" stroke="#63b8ff" points="372.12,-515.63 369.95,-505.26 365.18,-514.72 372.12,-515.63"/>
</a>
</g>
</g>
<!-- Node34&#45;&gt;Node8 -->
<g id="edge47_Node000034_Node000008" class="edge">
<title>Node34&#45;&gt;Node8</title>
<g id="a_edge47_Node000034_Node000008"><a xlink:title=" ">
<path fill="none" stroke="#63b8ff" d="M234.51,-235.44C241.58,-238.57 248.31,-242.52 254,-247.5 326.48,-310.93 357.47,-429 367.29,-475.73"/>
<polygon fill="#63b8ff" stroke="#63b8ff" points="363.9,-476.64 369.29,-485.76 370.76,-475.27 363.9,-476.64"/>
</a>
</g>
</g>
<!-- Node34&#45;&gt;Node30 -->
<g id="edge48_Node000034_Node000030" class="edge">
<title>Node34&#45;&gt;Node30</title>
<g id="a_edge48_Node000034_Node000030"><a xlink:title=" ">
<path fill="none" stroke="#63b8ff" d="M234.7,-222.04C256.93,-221.46 282.63,-220.8 305.69,-220.2"/>
<polygon fill="#63b8ff" stroke="#63b8ff" points="305.82,-223.69 315.73,-219.94 305.64,-216.7 305.82,-223.69"/>
</a>
</g>
</g>
<!-- Node35&#45;&gt;Node8 -->
<g id="edge50_Node000035_Node000008" class="edge">
<title>Node35&#45;&gt;Node8</title>
<g id="a_edge50_Node000035_Node000008"><a xlink:title=" ">
<path fill="none" stroke="#63b8ff" d="M230.16,-746.24C238.76,-742.88 247.12,-738.42 254,-732.5 323.93,-672.39 356.17,-560.6 366.8,-515.31"/>
<polygon fill="#63b8ff" stroke="#63b8ff" points="370.27,-515.83 369.05,-505.31 363.44,-514.3 370.27,-515.83"/>
</a>
</g>
</g>
</g>
</svg>
