<?xml version="1.0" encoding="UTF-8" standalone="no"?>
<!DOCTYPE svg PUBLIC "-//W3C//DTD SVG 1.1//EN"
 "http://www.w3.org/Graphics/SVG/1.1/DTD/svg11.dtd">
<!-- Generated by graphviz version 2.43.0 (0)
 -->
<!-- Title: tmc9660_comm_interface.hpp Pages: 1 -->
<svg width="876pt" height="258pt"
 viewBox="0.00 0.00 875.50 258.00" xmlns="http://www.w3.org/2000/svg" xmlns:xlink="http://www.w3.org/1999/xlink">
<g id="graph0" class="graph" transform="scale(1 1) rotate(0) translate(4 254)">
<title>tmc9660_comm_interface.hpp</title>
<!-- Node1 -->
<g id="Node000001" class="node">
<title>Node1</title>
<g id="a_Node000001"><a xlink:title="Communication interfaces for TMC9660 Parameter Mode devices using TMCL protocol over SPI and UART.">
<polygon fill="#999999" stroke="#666666" points="552,-250 387,-250 387,-231 552,-231 552,-250"/>
<text text-anchor="middle" x="469.5" y="-238" font-family="Helvetica,sans-Serif" font-size="10.00">tmc9660_comm_interface.hpp</text>
</a>
</g>
</g>
<!-- Node2 -->
<g id="Node000002" class="node">
<title>Node2</title>
<g id="a_Node000002"><a xlink:href="esp32__tmc9660__bus_8hpp.html" target="_top" xlink:title="ESP32&#45;specific communication interfaces for TMC9660 using SPI and UART.">
<polygon fill="white" stroke="#666666" points="441,-85 304,-85 304,-66 441,-66 441,-85"/>
<text text-anchor="middle" x="372.5" y="-73" font-family="Helvetica,sans-Serif" font-size="10.00">esp32_tmc9660_bus.hpp</text>
</a>
</g>
</g>
<!-- Node1&#45;&gt;Node2 -->
<g id="edge1_Node000001_Node000002" class="edge">
<title>Node1&#45;&gt;Node2</title>
<g id="a_edge1_Node000001_Node000002"><a xlink:title=" ">
<path fill="none" stroke="#63b8ff" d="M433.25,-227C418.03,-219.93 401.57,-209.54 391.5,-195 367.42,-160.23 369.58,-106.09 371.51,-85.16"/>
<polygon fill="#63b8ff" stroke="#63b8ff" points="431.92,-230.24 442.49,-230.98 434.69,-223.81 431.92,-230.24"/>
</a>
</g>
</g>
<!-- Node8 -->
<g id="Node000008" class="node">
<title>Node8</title>
<g id="a_Node000008"><a xlink:href="tmc9660_8hpp.html" target="_top" xlink:title="Main TMC9660 motor driver interface and subsystem classes.">
<polygon fill="white" stroke="#666666" points="581.5,-85 501.5,-85 501.5,-66 581.5,-66 581.5,-85"/>
<text text-anchor="middle" x="541.5" y="-73" font-family="Helvetica,sans-Serif" font-size="10.00">tmc9660.hpp</text>
</a>
</g>
</g>
<!-- Node1&#45;&gt;Node8 -->
<g id="edge7_Node000001_Node000008" class="edge">
<title>Node1&#45;&gt;Node8</title>
<g id="a_edge7_Node000001_Node000008"><a xlink:title=" ">
<path fill="none" stroke="#63b8ff" d="M508.64,-226.89C523.53,-219.96 538.96,-209.71 547.5,-195 568.4,-159.02 552.58,-106.04 544.98,-85.29"/>
<polygon fill="#63b8ff" stroke="#63b8ff" points="506.84,-223.85 499,-230.97 509.58,-230.29 506.84,-223.85"/>
</a>
</g>
</g>
<!-- Node10 -->
<g id="Node000010" class="node">
<title>Node10</title>
<g id="a_Node000010"><a xlink:href="tmc9660__bootloader_8cpp.html" target="_top" xlink:title=" ">
<polygon fill="white" stroke="#666666" points="538,-195 401,-195 401,-176 538,-176 538,-195"/>
<text text-anchor="middle" x="469.5" y="-183" font-family="Helvetica,sans-Serif" font-size="10.00">tmc9660_bootloader.cpp</text>
</a>
</g>
</g>
<!-- Node1&#45;&gt;Node10 -->
<g id="edge15_Node000001_Node000010" class="edge">
<title>Node1&#45;&gt;Node10</title>
<g id="a_edge15_Node000001_Node000010"><a xlink:title=" ">
<path fill="none" stroke="#63b8ff" d="M469.5,-220.66C469.5,-211.93 469.5,-201.99 469.5,-195.09"/>
<polygon fill="#63b8ff" stroke="#63b8ff" points="466,-220.75 469.5,-230.75 473,-220.75 466,-220.75"/>
</a>
</g>
</g>
<!-- Node3 -->
<g id="Node000003" class="node">
<title>Node3</title>
<g id="a_Node000003"><a xlink:href="bldc__comprehensive__test_8cpp.html" target="_top" xlink:title="Comprehensive BLDC motor testing suite for ESP32&#45;C6 DevKit&#45;M&#45;1 (noexcept)">
<polygon fill="white" stroke="#666666" points="280,-30 163,-30 163,0 280,0 280,-30"/>
<text text-anchor="start" x="171" y="-18" font-family="Helvetica,sans-Serif" font-size="10.00">bldc_comprehensive</text>
<text text-anchor="middle" x="221.5" y="-7" font-family="Helvetica,sans-Serif" font-size="10.00">_test.cpp</text>
</a>
</g>
</g>
<!-- Node2&#45;&gt;Node3 -->
<g id="edge2_Node000002_Node000003" class="edge">
<title>Node2&#45;&gt;Node3</title>
<g id="a_edge2_Node000002_Node000003"><a xlink:title=" ">
<path fill="none" stroke="#63b8ff" d="M341.09,-62.33C316.83,-52.93 283.22,-39.91 257.8,-30.06"/>
<polygon fill="#63b8ff" stroke="#63b8ff" points="339.95,-65.64 350.54,-65.99 342.48,-59.12 339.95,-65.64"/>
</a>
</g>
</g>
<!-- Node4 -->
<g id="Node000004" class="node">
<title>Node4</title>
<g id="a_Node000004"><a xlink:href="bootloader__comprehensive__test_8cpp.html" target="_top" xlink:title="Comprehensive Bootloader testing suite for ESP32&#45;C6 DevKit&#45;M&#45;1 (noexcept)">
<polygon fill="white" stroke="#666666" points="447,-30 298,-30 298,0 447,0 447,-30"/>
<text text-anchor="start" x="306" y="-18" font-family="Helvetica,sans-Serif" font-size="10.00">bootloader_comprehensive</text>
<text text-anchor="middle" x="372.5" y="-7" font-family="Helvetica,sans-Serif" font-size="10.00">_test.cpp</text>
</a>
</g>
</g>
<!-- Node2&#45;&gt;Node4 -->
<g id="edge3_Node000002_Node000004" class="edge">
<title>Node2&#45;&gt;Node4</title>
<g id="a_edge3_Node000002_Node000004"><a xlink:title=" ">
<path fill="none" stroke="#63b8ff" d="M372.5,-55.65C372.5,-47.36 372.5,-37.78 372.5,-30.11"/>
<polygon fill="#63b8ff" stroke="#63b8ff" points="369,-55.87 372.5,-65.87 376,-55.87 369,-55.87"/>
</a>
</g>
</g>
<!-- Node5 -->
<g id="Node000005" class="node">
<title>Node5</title>
<g id="a_Node000005"><a xlink:href="dc__comprehensive__test_8cpp.html" target="_top" xlink:title="Comprehensive DC motor testing suite for ESP32&#45;C6 DevKit&#45;M&#45;1 (noexcept)">
<polygon fill="white" stroke="#666666" points="617.5,-24.5 465.5,-24.5 465.5,-5.5 617.5,-5.5 617.5,-24.5"/>
<text text-anchor="middle" x="541.5" y="-12.5" font-family="Helvetica,sans-Serif" font-size="10.00">dc_comprehensive_test.cpp</text>
</a>
</g>
</g>
<!-- Node2&#45;&gt;Node5 -->
<g id="edge4_Node000002_Node000005" class="edge">
<title>Node2&#45;&gt;Node5</title>
<g id="a_edge4_Node000002_Node000005"><a xlink:title=" ">
<path fill="none" stroke="#63b8ff" d="M406.67,-62.67C439.36,-51.36 487.85,-34.57 516.9,-24.52"/>
<polygon fill="#63b8ff" stroke="#63b8ff" points="405.38,-59.41 397.07,-65.99 407.67,-66.03 405.38,-59.41"/>
</a>
</g>
</g>
<!-- Node6 -->
<g id="Node000006" class="node">
<title>Node6</title>
<g id="a_Node000006"><a xlink:href="stepper__comprehensive__test_8cpp.html" target="_top" xlink:title="Comprehensive Stepper motor testing suite for ESP32&#45;C6 DevKit&#45;M&#45;1 (noexcept)">
<polygon fill="white" stroke="#666666" points="769.5,-30 635.5,-30 635.5,0 769.5,0 769.5,-30"/>
<text text-anchor="start" x="643.5" y="-18" font-family="Helvetica,sans-Serif" font-size="10.00">stepper_comprehensive</text>
<text text-anchor="middle" x="702.5" y="-7" font-family="Helvetica,sans-Serif" font-size="10.00">_test.cpp</text>
</a>
</g>
</g>
<!-- Node2&#45;&gt;Node6 -->
<g id="edge5_Node000002_Node000006" class="edge">
<title>Node2&#45;&gt;Node6</title>
<g id="a_edge5_Node000002_Node000006"><a xlink:title=" ">
<path fill="none" stroke="#63b8ff" d="M432.12,-64.21C483.61,-55.28 559.99,-41.95 626.5,-30 629.41,-29.48 632.37,-28.94 635.37,-28.4"/>
<polygon fill="#63b8ff" stroke="#63b8ff" points="431.42,-60.77 422.17,-65.93 432.62,-67.67 431.42,-60.77"/>
</a>
</g>
</g>
<!-- Node7 -->
<g id="Node000007" class="node">
<title>Node7</title>
<g id="a_Node000007"><a xlink:href="telemetry__comprehensive__test_8cpp.html" target="_top" xlink:title="Comprehensive Telemetry monitoring test suite for ESP32&#45;C6 DevKit&#45;M&#45;1 (noexcept)">
<polygon fill="white" stroke="#666666" points="145,-30 0,-30 0,0 145,0 145,-30"/>
<text text-anchor="start" x="8" y="-18" font-family="Helvetica,sans-Serif" font-size="10.00">telemetry_comprehensive</text>
<text text-anchor="middle" x="72.5" y="-7" font-family="Helvetica,sans-Serif" font-size="10.00">_test.cpp</text>
</a>
</g>
</g>
<!-- Node2&#45;&gt;Node7 -->
<g id="edge6_Node000002_Node000007" class="edge">
<title>Node2&#45;&gt;Node7</title>
<g id="a_edge6_Node000002_Node000007"><a xlink:title=" ">
<path fill="none" stroke="#63b8ff" d="M318.86,-64.04C270.17,-54.55 197.99,-40.47 144.33,-30.01"/>
<polygon fill="#63b8ff" stroke="#63b8ff" points="318.39,-67.51 328.88,-65.99 319.73,-60.64 318.39,-67.51"/>
</a>
</g>
</g>
<!-- Node8&#45;&gt;Node3 -->
<g id="edge8_Node000008_Node000003" class="edge">
<title>Node8&#45;&gt;Node3</title>
<g id="a_edge8_Node000008_Node000003"><a xlink:title=" ">
<path fill="none" stroke="#63b8ff" d="M490.99,-66.1C439.86,-57.49 358.56,-43.48 288.5,-30 285.82,-29.48 283.07,-28.95 280.3,-28.4"/>
<polygon fill="#63b8ff" stroke="#63b8ff" points="490.67,-69.6 501.11,-67.8 491.83,-62.7 490.67,-69.6"/>
</a>
</g>
</g>
<!-- Node8&#45;&gt;Node4 -->
<g id="edge9_Node000008_Node000004" class="edge">
<title>Node8&#45;&gt;Node4</title>
<g id="a_edge9_Node000008_Node000004"><a xlink:title=" ">
<path fill="none" stroke="#63b8ff" d="M507.43,-62.71C480.2,-53.28 441.95,-40.04 413.13,-30.06"/>
<polygon fill="#63b8ff" stroke="#63b8ff" points="506.33,-66.03 516.93,-65.99 508.62,-59.41 506.33,-66.03"/>
</a>
</g>
</g>
<!-- Node8&#45;&gt;Node5 -->
<g id="edge10_Node000008_Node000005" class="edge">
<title>Node8&#45;&gt;Node5</title>
<g id="a_edge10_Node000008_Node000005"><a xlink:title=" ">
<path fill="none" stroke="#63b8ff" d="M541.5,-55.66C541.5,-45.24 541.5,-32.8 541.5,-24.67"/>
<polygon fill="#63b8ff" stroke="#63b8ff" points="538,-55.87 541.5,-65.87 545,-55.87 538,-55.87"/>
</a>
</g>
</g>
<!-- Node8&#45;&gt;Node6 -->
<g id="edge11_Node000008_Node000006" class="edge">
<title>Node8&#45;&gt;Node6</title>
<g id="a_edge11_Node000008_Node000006"><a xlink:title=" ">
<path fill="none" stroke="#63b8ff" d="M574.64,-62.46C600.54,-53.05 636.58,-39.95 663.79,-30.06"/>
<polygon fill="#63b8ff" stroke="#63b8ff" points="573.11,-59.29 564.91,-65.99 575.5,-65.87 573.11,-59.29"/>
</a>
</g>
</g>
<!-- Node8&#45;&gt;Node7 -->
<g id="edge12_Node000008_Node000007" class="edge">
<title>Node8&#45;&gt;Node7</title>
<g id="a_edge12_Node000008_Node000007"><a xlink:title=" ">
<path fill="none" stroke="#63b8ff" d="M491.49,-69.68C417.48,-62.35 274.49,-47.38 153.5,-30 150.82,-29.61 148.08,-29.21 145.33,-28.79"/>
<polygon fill="#63b8ff" stroke="#63b8ff" points="491.17,-73.17 501.47,-70.67 491.86,-66.2 491.17,-73.17"/>
</a>
</g>
</g>
<!-- Node9 -->
<g id="Node000009" class="node">
<title>Node9</title>
<g id="a_Node000009"><a xlink:href="tmc9660_8cpp.html" target="_top" xlink:title=" ">
<polygon fill="white" stroke="#666666" points="867.5,-24.5 787.5,-24.5 787.5,-5.5 867.5,-5.5 867.5,-24.5"/>
<text text-anchor="middle" x="827.5" y="-12.5" font-family="Helvetica,sans-Serif" font-size="10.00">tmc9660.cpp</text>
</a>
</g>
</g>
<!-- Node8&#45;&gt;Node9 -->
<g id="edge13_Node000008_Node000009" class="edge">
<title>Node8&#45;&gt;Node9</title>
<g id="a_edge13_Node000008_Node000009"><a xlink:title=" ">
<path fill="none" stroke="#63b8ff" d="M591.86,-65.23C638.26,-57.1 708.7,-44.36 769.5,-30 776.3,-28.39 783.57,-26.45 790.64,-24.52"/>
<polygon fill="#63b8ff" stroke="#63b8ff" points="591,-61.82 581.75,-66.99 592.21,-68.72 591,-61.82"/>
</a>
</g>
</g>
<!-- Node9&#45;&gt;Node8 -->
<g id="edge14_Node000009_Node000008" class="edge">
<title>Node9&#45;&gt;Node8</title>
<g id="a_edge14_Node000009_Node000008"><a xlink:title=" ">
<path fill="none" stroke="#63b8ff" d="M798.09,-27.33C794.55,-28.28 790.96,-29.18 787.5,-30 715.79,-46.94 630.66,-61.62 581.54,-69.14"/>
<polygon fill="#63b8ff" stroke="#63b8ff" points="799.18,-30.66 807.86,-24.59 797.29,-23.92 799.18,-30.66"/>
</a>
</g>
</g>
<!-- Node11 -->
<g id="Node000011" class="node">
<title>Node11</title>
<g id="a_Node000011"><a xlink:href="tmc9660__bootloader_8hpp.html" target="_top" xlink:title="Main TMC9660 bootloader interface class.">
<polygon fill="white" stroke="#666666" points="538,-140 401,-140 401,-121 538,-121 538,-140"/>
<text text-anchor="middle" x="469.5" y="-128" font-family="Helvetica,sans-Serif" font-size="10.00">tmc9660_bootloader.hpp</text>
</a>
</g>
</g>
<!-- Node10&#45;&gt;Node11 -->
<g id="edge16_Node000010_Node000011" class="edge">
<title>Node10&#45;&gt;Node11</title>
<g id="a_edge16_Node000010_Node000011"><a xlink:title=" ">
<path fill="none" stroke="#63b8ff" d="M463.01,-165.66C462.41,-156.93 462.86,-146.99 464.37,-140.09"/>
<polygon fill="#63b8ff" stroke="#63b8ff" points="459.56,-166.29 464.33,-175.75 466.5,-165.38 459.56,-166.29"/>
</a>
</g>
</g>
<!-- Node11&#45;&gt;Node8 -->
<g id="edge17_Node000011_Node000008" class="edge">
<title>Node11&#45;&gt;Node8</title>
<g id="a_edge17_Node000011_Node000008"><a xlink:title=" ">
<path fill="none" stroke="#63b8ff" d="M489.37,-114.88C502.32,-105.34 518.8,-93.21 529.72,-85.17"/>
<polygon fill="#63b8ff" stroke="#63b8ff" points="487.05,-112.24 481.07,-120.98 491.2,-117.88 487.05,-112.24"/>
</a>
</g>
</g>
<!-- Node11&#45;&gt;Node10 -->
<g id="edge18_Node000011_Node000010" class="edge">
<title>Node11&#45;&gt;Node10</title>
<g id="a_edge18_Node000011_Node000010"><a xlink:title=" ">
<path fill="none" stroke="#63b8ff" d="M475.98,-150.13C476.6,-158.85 476.16,-168.8 474.67,-175.75"/>
<polygon fill="#63b8ff" stroke="#63b8ff" points="479.43,-149.53 474.63,-140.09 472.49,-150.47 479.43,-149.53"/>
</a>
</g>
</g>
</g>
</svg>
